<svg xmlns="http://www.w3.org/2000/svg" xmlns:xlink="http://www.w3.org/1999/xlink" xmlns:lucid="lucid" width="1040" height="1560"><g transform="translate(-60 -40)" lucid:page-tab-id="0_0"><path d="M0 0h1870.87v2581.67H0z" fill="#fff"/><path d="M80 186c0-3.3 2.7-6 6-6h628c3.3 0 6 2.7 6 6v388c0 3.3-2.7 6-6 6H86c-3.3 0-6-2.7-6-6z" stroke="#5e5e5e" stroke-width="3" fill="#fff"/><path d="M80 185c0-3.3 2.7-6 6-6h108c3.3 0 6 2.7 6 6v49c0 3.3-2.7 6-6 6H86c-3.3 0-6-2.7-6-6z" stroke="#5e5e5e" stroke-width="3" fill="#fff"/><use xlink:href="#a" transform="matrix(1,0,0,1,85,184) translate(19.481481481481488 30.895833333333332)"/><path d="M120 275.5c0-3.3 2.7-6 6-6h228c3.3 0 6 2.7 6 6v269c0 3.3-2.7 6-6 6H126c-3.3 0-6-2.7-6-6z" stroke="#5e5e5e" stroke-width="3" fill="#fff"/><path d="M120 312.43h240" stroke="#5e5e5e" stroke-width="3" fill="none"/><use xlink:href="#b" transform="matrix(1,0,0,1,128,277.5) translate(64.741975308642 17.988888888888887)"/><use xlink:href="#c" transform="matrix(1,0,0,1,132,320.43333333333334) translate(40.33333333333334 19.000000000000007)"/><use xlink:href="#d" transform="matrix(1,0,0,1,132,320.43333333333334) translate(32.055555555555586 43)"/><use xlink:href="#e" transform="matrix(1,0,0,1,132,320.43333333333334) translate(95.16666666666667 43)"/><use xlink:href="#f" transform="matrix(1,0,0,1,132,320.43333333333334) translate(85.77777777777779 67)"/><use xlink:href="#g" transform="matrix(1,0,0,1,132,320.43333333333334) translate(76.91666666666669 90.99999999999999)"/><use xlink:href="#h" transform="matrix(1,0,0,1,132,320.43333333333334) translate(51.97222222222223 114.99999999999999)"/><use xlink:href="#i" transform="matrix(1,0,0,1,132,320.43333333333334) translate(60.27777777777779 138.99999999999997)"/><use xlink:href="#j" transform="matrix(1,0,0,1,132,320.43333333333334) translate(123.5 138.99999999999997)"/><use xlink:href="#k" transform="matrix(1,0,0,1,132,320.43333333333334) translate(49.25000000000003 163)"/><use xlink:href="#l" transform="matrix(1,0,0,1,132,320.43333333333334) translate(133.58333333333331 163)"/><use xlink:href="#m" transform="matrix(1,0,0,1,132,320.43333333333334) translate(19.222222222222257 187)"/><use xlink:href="#n" transform="matrix(1,0,0,1,132,320.43333333333334) translate(79.11111111111113 187)"/><use xlink:href="#o" transform="matrix(1,0,0,1,132,320.43333333333334) translate(106.8888888888889 187)"/><use xlink:href="#p" transform="matrix(1,0,0,1,132,320.43333333333334) translate(26.972222222222243 211)"/><use xlink:href="#n" transform="matrix(1,0,0,1,132,320.43333333333334) translate(70.30555555555556 211)"/><use xlink:href="#q" transform="matrix(1,0,0,1,132,320.43333333333334) translate(98.08333333333333 211)"/><path d="M440 371.5c0-3.3 2.7-6 6-6h228c3.3 0 6 2.7 6 6v101c0 3.3-2.7 6-6 6H446c-3.3 0-6-2.7-6-6z" stroke="#5e5e5e" stroke-width="3" fill="#fff"/><path d="M440 408.43h240" stroke="#5e5e5e" stroke-width="3" fill="none"/><use xlink:href="#r" transform="matrix(1,0,0,1,448,373.5) translate(14.210802469135828 17.988888888888887)"/><use xlink:href="#s" transform="matrix(1,0,0,1,448,373.5) translate(66.58117283950618 17.988888888888887)"/><use xlink:href="#t" transform="matrix(1,0,0,1,448,373.5) translate(98.93858024691359 17.988888888888887)"/><use xlink:href="#u" transform="matrix(1,0,0,1,452,416.43333333333334) translate(89.11111111111111 19)"/><use xlink:href="#v" transform="matrix(1,0,0,1,452,416.43333333333334) translate(35.33333333333334 42.99999999999999)"/><use xlink:href="#w" transform="matrix(1,0,0,1,452,416.43333333333334) translate(116.33333333333333 42.99999999999999)"/><path d="M362.5 410H420" stroke="#5e5e5e" stroke-width="2" fill="none"/><path d="M362.53 411h-1.03v-2h1.03z" fill="#5e5e5e"/><path d="M435.26 410L421 414.64v-9.28z" stroke="#5e5e5e" stroke-width="2" fill="#5e5e5e"/><path d="M80 626c0-3.3 2.7-6 6-6h748c3.3 0 6 2.7 6 6v488c0 3.3-2.7 6-6 6H86c-3.3 0-6-2.7-6-6z" stroke="#5e5e5e" stroke-width="3" fill="#fff"/><path d="M80 626c0-3.3 2.7-6 6-6h108c3.3 0 6 2.7 6 6v49c0 3.3-2.7 6-6 6H86c-3.3 0-6-2.7-6-6z" stroke="#5e5e5e" stroke-width="3" fill="#fff"/><use xlink:href="#x" transform="matrix(1,0,0,1,85,625) translate(15.777777777777786 30.895833333333332)"/><path d="M120 716.5c0-3.3 2.7-6 6-6h228c3.3 0 6 2.7 6 6v365c0 3.3-2.7 6-6 6H126c-3.3 0-6-2.7-6-6z" stroke="#5e5e5e" stroke-width="3" fill="#fff"/><path d="M120 753.43h240" stroke="#5e5e5e" stroke-width="3" fill="none"/><use xlink:href="#y" transform="matrix(1,0,0,1,128,718.5) translate(84.03796296296298 17.988888888888887)"/><use xlink:href="#z" transform="matrix(1,0,0,1,132,761.4333333333333) translate(91.91666666666667 19.00000000000002)"/><use xlink:href="#A" transform="matrix(1,0,0,1,132,761.4333333333333) translate(70.86111111111113 43.000000000000014)"/><use xlink:href="#B" transform="matrix(1,0,0,1,132,761.4333333333333) translate(53.0277777777778 67.00000000000001)"/><use xlink:href="#C" transform="matrix(1,0,0,1,132,761.4333333333333) translate(6.4444444444444855 91)"/><use xlink:href="#D" transform="matrix(1,0,0,1,132,761.4333333333333) translate(121.94444444444444 91)"/><use xlink:href="#E" transform="matrix(1,0,0,1,132,761.4333333333333) translate(70.27777777777779 115)"/><use xlink:href="#F" transform="matrix(1,0,0,1,132,761.4333333333333) translate(75.2777777777778 139)"/><use xlink:href="#G" transform="matrix(1,0,0,1,132,761.4333333333333) translate(62.527777777777786 163)"/><use xlink:href="#H" transform="matrix(1,0,0,1,132,761.4333333333333) translate(13.111111111111143 187)"/><use xlink:href="#I" transform="matrix(1,0,0,1,132,761.4333333333333) translate(89.66666666666667 187)"/><use xlink:href="#J" transform="matrix(1,0,0,1,132,761.4333333333333) translate(106.33333333333333 187)"/><use xlink:href="#K" transform="matrix(1,0,0,1,132,761.4333333333333) translate(67.47222222222223 211)"/><use xlink:href="#L" transform="matrix(1,0,0,1,132,761.4333333333333) translate(1.472222222222257 235)"/><use xlink:href="#n" transform="matrix(1,0,0,1,132,761.4333333333333) translate(74.6388888888889 235)"/><use xlink:href="#M" transform="matrix(1,0,0,1,132,761.4333333333333) translate(102.41666666666667 235)"/><use xlink:href="#N" transform="matrix(1,0,0,1,132,761.4333333333333) translate(27.55555555555557 259)"/><use xlink:href="#O" transform="matrix(1,0,0,1,132,761.4333333333333) translate(111.88888888888887 259)"/><use xlink:href="#P" transform="matrix(1,0,0,1,132,761.4333333333333) translate(132.94444444444443 259)"/><use xlink:href="#N" transform="matrix(1,0,0,1,132,761.4333333333333) translate(23.111111111111143 283)"/><use xlink:href="#I" transform="matrix(1,0,0,1,132,761.4333333333333) translate(107.44444444444444 283)"/><use xlink:href="#Q" transform="matrix(1,0,0,1,132,761.4333333333333) translate(124.1111111111111 283)"/><use xlink:href="#R" transform="matrix(1,0,0,1,132,761.4333333333333) translate(145.16666666666666 283)"/><use xlink:href="#S" transform="matrix(1,0,0,1,132,761.4333333333333) translate(78.58333333333334 307)"/><path d="M440 848.5c0-3.3 2.7-6 6-6h108c3.3 0 6 2.7 6 6v101c0 3.3-2.7 6-6 6H446c-3.3 0-6-2.7-6-6z" stroke="#5e5e5e" stroke-width="3" fill="#fff"/><path d="M440 885.43h120" stroke="#5e5e5e" stroke-width="3" fill="none"/><use xlink:href="#T" transform="matrix(1,0,0,1,448.00000000000006,850.5) translate(14.09382716049383 17.988888888888887)"/><use xlink:href="#U" transform="matrix(1,0,0,1,452.00000000000006,893.4333333333333) translate(18.583333333333343 19)"/><use xlink:href="#V" transform="matrix(1,0,0,1,452.00000000000006,893.4333333333333) translate(29.111111111111118 42.99999999999999)"/><path d="M640 836.5c0-3.3 2.7-6 6-6h148c3.3 0 6 2.7 6 6v125c0 3.3-2.7 6-6 6H646c-3.3 0-6-2.7-6-6z" stroke="#5e5e5e" stroke-width="3" fill="#fff"/><path d="M640 873.43h160" stroke="#5e5e5e" stroke-width="3" fill="none"/><use xlink:href="#W" transform="matrix(1,0,0,1,648,838.5) translate(48.9320987654321 17.988888888888887)"/><use xlink:href="#u" transform="matrix(1,0,0,1,652,881.4333333333333) translate(49.111111111111114 19.000000000000007)"/><use xlink:href="#X" transform="matrix(1,0,0,1,652,881.4333333333333) translate(14.194444444444457 43)"/><use xlink:href="#Y" transform="matrix(1,0,0,1,652,881.4333333333333) translate(25.277777777777786 67)"/><path d="M562.5 899H620" stroke="#5e5e5e" stroke-width="2" fill="none"/><path d="M562.53 900h-1.03v-2h1.03z" fill="#5e5e5e"/><path d="M635.26 899L621 903.64v-9.28z" stroke="#5e5e5e" stroke-width="2" fill="#5e5e5e"/><path d="M760 67c0-3.3 2.7-6 6-6h308c3.3 0 6 2.7 6 6v507c0 3.3-2.7 6-6 6H766c-3.3 0-6-2.7-6-6z" stroke="#5e5e5e" stroke-width="3" fill="#fff"/><path d="M760 66c0-3.3 2.7-6 6-6h108c3.3 0 6 2.7 6 6v49c0 3.3-2.7 6-6 6H766c-3.3 0-6-2.7-6-6z" stroke="#5e5e5e" stroke-width="3" fill="#fff"/><use xlink:href="#Z" transform="matrix(1,0,0,1,765,65) translate(29.814814814814817 30.895833333333332)"/><path d="M800 146c0-3.3 2.7-6 6-6h228c3.3 0 6 2.7 6 6v389c0 3.3-2.7 6-6 6H806c-3.3 0-6-2.7-6-6z" stroke="#5e5e5e" stroke-width="3" fill="#fff"/><path d="M800 182.93h240" stroke="#5e5e5e" stroke-width="3" fill="none"/><g><use xlink:href="#aa" transform="matrix(1,0,0,1,808,148) translate(9.316666666666691 17.988888888888887)"/><use xlink:href="#ab" transform="matrix(1,0,0,1,808,148) translate(101.4635802469136 17.988888888888887)"/></g><g><use xlink:href="#ac" transform="matrix(1,0,0,1,812,190.93333333333334) translate(24.25000000000003 19.00000000000002)"/><use xlink:href="#n" transform="matrix(1,0,0,1,812,190.93333333333334) translate(61.97222222222224 19.00000000000002)"/><use xlink:href="#ad" transform="matrix(1,0,0,1,812,190.93333333333334) translate(89.75000000000001 19.00000000000002)"/><use xlink:href="#ae" transform="matrix(1,0,0,1,812,190.93333333333334) translate(76.94444444444446 43.000000000000014)"/><use xlink:href="#af" transform="matrix(1,0,0,1,812,190.93333333333334) translate(30.2777777777778 67.00000000000001)"/><use xlink:href="#n" transform="matrix(1,0,0,1,812,190.93333333333334) translate(103.5 67.00000000000001)"/><use xlink:href="#ag" transform="matrix(1,0,0,1,812,190.93333333333334) translate(131.27777777777777 67.00000000000001)"/><use xlink:href="#af" transform="matrix(1,0,0,1,812,190.93333333333334) translate(28.083333333333357 91)"/><use xlink:href="#n" transform="matrix(1,0,0,1,812,190.93333333333334) translate(101.30555555555556 91)"/><use xlink:href="#ah" transform="matrix(1,0,0,1,812,190.93333333333334) translate(129.08333333333331 91)"/><use xlink:href="#ai" transform="matrix(1,0,0,1,812,190.93333333333334) translate(65.30555555555557 115)"/><use xlink:href="#aj" transform="matrix(1,0,0,1,812,190.93333333333334) translate(54.777777777777786 139)"/><use xlink:href="#ak" transform="matrix(1,0,0,1,812,190.93333333333334) translate(82.47222222222223 163)"/><use xlink:href="#al" transform="matrix(1,0,0,1,812,190.93333333333334) translate(28.111111111111143 187)"/><use xlink:href="#am" transform="matrix(1,0,0,1,812,190.93333333333334) translate(93.55555555555556 187)"/><use xlink:href="#al" transform="matrix(1,0,0,1,812,190.93333333333334) translate(32.5277777777778 211)"/><use xlink:href="#an" transform="matrix(1,0,0,1,812,190.93333333333334) translate(97.97222222222221 211)"/><use xlink:href="#ao" transform="matrix(1,0,0,1,812,190.93333333333334) translate(74.72222222222223 235)"/><use xlink:href="#ap" transform="matrix(1,0,0,1,812,190.93333333333334) translate(58.111111111111114 259)"/><use xlink:href="#aq" transform="matrix(1,0,0,1,812,190.93333333333334) translate(28.11111111111113 283)"/><use xlink:href="#ar" transform="matrix(1,0,0,1,812,190.93333333333334) translate(139.11111111111111 283)"/><use xlink:href="#as" transform="matrix(1,0,0,1,812,190.93333333333334) translate(21.444444444444457 307)"/><use xlink:href="#at" transform="matrix(1,0,0,1,812,190.93333333333334) translate(111.22222222222221 307)"/><use xlink:href="#au" transform="matrix(1,0,0,1,812,190.93333333333334) translate(50.83333333333334 331)"/></g><path d="M80 1145c0-3.3 2.7-6 6-6h948c3.3 0 6 2.7 6 6v429c0 3.3-2.7 6-6 6H86c-3.3 0-6-2.7-6-6z" stroke="#5e5e5e" stroke-width="3" fill="#fff"/><path d="M80 1145c0-3.3 2.7-6 6-6h108c3.3 0 6 2.7 6 6v49c0 3.3-2.7 6-6 6H86c-3.3 0-6-2.7-6-6z" stroke="#5e5e5e" stroke-width="3" fill="#fff"/><g><use xlink:href="#av" transform="matrix(1,0,0,1,85,1144) translate(8.370370370370381 30.895833333333332)"/></g><path d="M130 1285c0-3.3 2.7-6 6-6h188c3.3 0 6 2.7 6 6v168c0 3.3-2.7 6-6 6H136c-3.3 0-6-2.7-6-6z" stroke="#5e5e5e" stroke-width="3" fill="#fff"/><path d="M130 1321.93h200" stroke="#5e5e5e" stroke-width="3" fill="none"/><g><use xlink:href="#aw" transform="matrix(1,0,0,1,138,1287) translate(74.57438271604939 17.988888888888887)"/></g><g><use xlink:href="#ax" transform="matrix(1,0,0,1,142,1329.9333333333334) translate(69.13888888888889 16.500000000000007)"/><use xlink:href="#ay" transform="matrix(1,0,0,1,142,1329.9333333333334) translate(54.16666666666668 40.5)"/><use xlink:href="#az" transform="matrix(1,0,0,1,142,1329.9333333333334) translate(52.47222222222223 64.5)"/><use xlink:href="#aA" transform="matrix(1,0,0,1,142,1329.9333333333334) translate(21.472222222222257 88.49999999999999)"/><use xlink:href="#aB" transform="matrix(1,0,0,1,142,1329.9333333333334) translate(83.47222222222223 88.49999999999999)"/><use xlink:href="#aC" transform="matrix(1,0,0,1,142,1329.9333333333334) translate(116.80555555555554 88.49999999999999)"/><use xlink:href="#aD" transform="matrix(1,0,0,1,142,1329.9333333333334) translate(23.111111111111143 112.49999999999999)"/><use xlink:href="#aB" transform="matrix(1,0,0,1,142,1329.9333333333334) translate(81.83333333333334 112.49999999999999)"/><use xlink:href="#aE" transform="matrix(1,0,0,1,142,1329.9333333333334) translate(115.16666666666666 112.49999999999999)"/></g><path d="M410 1225c0-3.3 2.7-6 6-6h128c3.3 0 6 2.7 6 6v77c0 3.3-2.7 6-6 6H416c-3.3 0-6-2.7-6-6z" stroke="#5e5e5e" stroke-width="3" fill="#fff"/><path d="M410 1261.93h140" stroke="#5e5e5e" stroke-width="3" fill="none"/><g><use xlink:href="#aF" transform="matrix(1,0,0,1,418,1227) translate(40.21018518518519 17.988888888888887)"/></g><g><use xlink:href="#aG" transform="matrix(1,0,0,1,422,1269.9333333333334) translate(3.1111111111111285 19)"/></g><path d="M332.5 1369H364c3.3 0 6-2.7 6-6v-103.03c0-3.32 2.7-6 6-6h14" stroke="#5e5e5e" stroke-width="2" fill="none"/><path d="M332.53 1370h-1.03v-2h1.03z" fill="#5e5e5e"/><path d="M405.26 1253.97L391 1258.6v-9.27z" stroke="#5e5e5e" stroke-width="2" fill="#5e5e5e"/><path d="M630 1225c0-3.3 2.7-6 6-6h168c3.3 0 6 2.7 6 6v77c0 3.3-2.7 6-6 6H636c-3.3 0-6-2.7-6-6z" stroke="#5e5e5e" stroke-width="3" fill="#fff"/><path d="M630 1261.93h180" stroke="#5e5e5e" stroke-width="3" fill="none"/><g><use xlink:href="#aH" transform="matrix(1,0,0,1,638,1227) translate(12.92098765432101 17.988888888888887)"/></g><g><use xlink:href="#aI" transform="matrix(1,0,0,1,642,1269.9333333333334) translate(61.33333333333334 19)"/></g><path d="M552.5 1263.5H610" stroke="#5e5e5e" stroke-width="2" fill="none"/><path d="M552.53 1264.5h-1.03v-2h1.03z" fill="#5e5e5e"/><path d="M625.26 1263.5l-14.26 4.64v-9.28z" stroke="#5e5e5e" stroke-width="2" fill="#5e5e5e"/><path d="M510 1440.5c0-3.3 2.7-6 6-6h128c3.3 0 6 2.7 6 6v77c0 3.3-2.7 6-6 6H516c-3.3 0-6-2.7-6-6z" stroke="#5e5e5e" stroke-width="3" fill="#fff"/><path d="M510 1477.43h140" stroke="#5e5e5e" stroke-width="3" fill="none"/><g><use xlink:href="#aJ" transform="matrix(1,0,0,1,518,1442.5) translate(19.012654320987664 17.988888888888887)"/></g><g><use xlink:href="#aI" transform="matrix(1,0,0,1,522,1485.4333333333334) translate(41.33333333333334 19)"/></g><path d="M332.5 1369H364c3.3 0 6 2.7 6 6v98c0 3.3 2.7 6 6 6h114" stroke="#5e5e5e" stroke-width="2" fill="none"/><path d="M332.53 1370h-1.03v-2h1.03z" fill="#5e5e5e"/><path d="M505.26 1479l-14.26 4.64v-9.28z" stroke="#5e5e5e" stroke-width="2" fill="#5e5e5e"/><path d="M812.5 1263.5H854c3.3 0 6 2.7 6 6v91.13c0 3.3 2.7 6 6 6h24" stroke="#5e5e5e" stroke-width="2" fill="none"/><path d="M812.53 1264.5h-1.03v-2h1.03z" fill="#5e5e5e"/><path d="M905.26 1366.63l-14.26 4.63V1362z" stroke="#5e5e5e" stroke-width="2" fill="#5e5e5e"/><path d="M652.5 1479H854c3.3 0 6-2.7 6-6v-100.38c0-3.3 2.7-6 6-6h24" stroke="#5e5e5e" stroke-width="2" fill="none"/><path d="M652.53 1480h-1.03v-2h1.03z" fill="#5e5e5e"/><path d="M905.26 1366.63l-14.26 4.63V1362z" stroke="#5e5e5e" stroke-width="2" fill="#5e5e5e"/><path d="M362.5 899H420" stroke="#5e5e5e" stroke-width="2" fill="none"/><path d="M362.53 900h-1.03v-2h1.03z" fill="#5e5e5e"/><path d="M435.26 899L421 903.64v-9.28z" stroke="#5e5e5e" stroke-width="2" fill="#5e5e5e"/><path d="M910 1345c0-3.3 2.7-6 6-6h68c3.3 0 6 2.7 6 6v43.25c0 3.3-2.7 6-6 6h-68c-3.3 0-6-2.7-6-6z" stroke="#5e5e5e" stroke-width="3" fill="#fff"/><g><use xlink:href="#aK" transform="matrix(1,0,0,1,910,1339) translate(18.487654320987662 31.77777777777777)"/></g><defs><path fill="#333" d="M140-251c81 0 123 46 123 126C263-53 228-8 163 1c7 30 30 48 69 40v23c-55 16-95-15-103-61C56-3 17-48 17-125c0-80 42-126 123-126zm0 227c63 0 89-41 89-101s-29-99-89-99c-61 0-89 39-89 99S79-25 140-24" id="aL"/><path fill="#333" d="M84 4C-5 8 30-112 23-190h32v120c0 31 7 50 39 49 72-2 45-101 50-169h31l1 190h-30c-1-10 1-25-2-33-11 22-28 36-60 37" id="aM"/><path fill="#333" d="M24-231v-30h32v30H24zM24 0v-190h32V0H24" id="aN"/><path fill="#333" d="M100-194c63 0 86 42 84 106H49c0 40 14 67 53 68 26 1 43-12 49-29l28 8c-11 28-37 45-77 45C44 4 14-33 15-96c1-61 26-98 85-98zm52 81c6-60-76-77-97-28-3 7-6 17-6 28h103zm-74-98c8-23 27-35 38-54h36v5l-58 49H78" id="aO"/><path fill="#333" d="M117-194c89-4 53 116 60 194h-32v-121c0-31-8-49-39-48C34-167 62-67 57 0H25l-1-190h30c1 10-1 24 2 32 11-22 29-35 61-36" id="aP"/><g id="a"><use transform="matrix(0.07407407407407407,0,0,0.07407407407407407,0,0)" xlink:href="#aL"/><use transform="matrix(0.07407407407407407,0,0,0.07407407407407407,20.74074074074074,0)" xlink:href="#aM"/><use transform="matrix(0.07407407407407407,0,0,0.07407407407407407,35.55555555555556,0)" xlink:href="#aN"/><use transform="matrix(0.07407407407407407,0,0,0.07407407407407407,41.407407407407405,0)" xlink:href="#aO"/><use transform="matrix(0.07407407407407407,0,0,0.07407407407407407,56.22222222222221,0)" xlink:href="#aP"/></g><path fill="#333" d="M186 0v-106H76V0H24v-248h52v99h110v-99h50V0h-50" id="aQ"/><path fill="#333" d="M85 4C-2 5 27-109 22-190h50c7 57-23 150 33 157 60-5 35-97 40-157h50l1 190h-47c-2-12 1-28-3-38-12 25-28 42-61 42" id="aR"/><path fill="#333" d="M185-48c-13 30-37 53-82 52C43 2 14-33 14-96s30-98 90-98c62 0 83 45 84 108H66c0 31 8 55 39 56 18 0 30-7 34-22zm-45-69c5-46-57-63-70-21-2 6-4 13-4 21h74zm-67-91v-5l45-51h45v8l-60 48H73" id="aS"/><path fill="#333" d="M137-138c1-29-70-34-71-4 15 46 118 7 119 86 1 83-164 76-172 9l43-7c4 19 20 25 44 25 33 8 57-30 24-41C81-84 22-81 20-136c-2-80 154-74 161-7" id="aT"/><path fill="#333" d="M135-194c53 0 70 44 70 98 0 56-19 98-73 100-31 1-45-17-59-34 3 33 2 69 2 105H25l-1-265h48c2 10 0 23 3 31 11-24 29-35 60-35zM114-30c33 0 39-31 40-66 0-38-9-64-40-64-56 0-55 130 0 130" id="aU"/><path fill="#333" d="M185-48c-13 30-37 53-82 52C43 2 14-33 14-96s30-98 90-98c62 0 83 45 84 108H66c0 31 8 55 39 56 18 0 30-7 34-22zm-45-69c5-46-57-63-70-21-2 6-4 13-4 21h74" id="aV"/><path fill="#333" d="M88-194c31-1 46 15 58 34l-1-101h50l1 261h-48c-2-10 0-23-3-31C134-8 116 4 84 4 32 4 16-41 15-95c0-56 19-97 73-99zm17 164c33 0 40-30 41-66 1-37-9-64-41-64s-38 30-39 65c0 43 13 65 39 65" id="aW"/><g id="b"><use transform="matrix(0.06234567901234567,0,0,0.06234567901234567,0,0)" xlink:href="#aQ"/><use transform="matrix(0.06234567901234567,0,0,0.06234567901234567,16.147530864197527,0)" xlink:href="#aR"/><use transform="matrix(0.06234567901234567,0,0,0.06234567901234567,29.80123456790123,0)" xlink:href="#aS"/><use transform="matrix(0.06234567901234567,0,0,0.06234567901234567,42.27037037037036,0)" xlink:href="#aT"/><use transform="matrix(0.06234567901234567,0,0,0.06234567901234567,54.73950617283949,0)" xlink:href="#aU"/><use transform="matrix(0.06234567901234567,0,0,0.06234567901234567,68.3932098765432,0)" xlink:href="#aV"/><use transform="matrix(0.06234567901234567,0,0,0.06234567901234567,80.86234567901232,0)" xlink:href="#aW"/></g><path fill="#333" d="M85-194c31 0 48 13 60 33l-1-100h32l1 261h-30c-2-10 0-23-3-31C134-8 116 4 85 4 32 4 16-35 15-94c0-66 23-100 70-100zm9 24c-40 0-46 34-46 75 0 40 6 74 45 74 42 0 51-32 51-76 0-42-9-74-50-73" id="aX"/><path fill="#333" d="M100-194c63 0 86 42 84 106H49c0 40 14 67 53 68 26 1 43-12 49-29l28 8c-11 28-37 45-77 45C44 4 14-33 15-96c1-61 26-98 85-98zm52 81c6-60-76-77-97-28-3 7-6 17-6 28h103" id="aY"/><path fill="#333" d="M135-143c-3-34-86-38-87 0 15 53 115 12 119 90S17 21 10-45l28-5c4 36 97 45 98 0-10-56-113-15-118-90-4-57 82-63 122-42 12 7 21 19 24 35" id="aZ"/><path fill="#333" d="M96-169c-40 0-48 33-48 73s9 75 48 75c24 0 41-14 43-38l32 2c-6 37-31 61-74 61-59 0-76-41-82-99-10-93 101-131 147-64 4 7 5 14 7 22l-32 3c-4-21-16-35-41-35" id="ba"/><path fill="#333" d="M115-194c53 0 69 39 70 98 0 66-23 100-70 100C84 3 66-7 56-30L54 0H23l1-261h32v101c10-23 28-34 59-34zm-8 174c40 0 45-34 45-75 0-40-5-75-45-74-42 0-51 32-51 76 0 43 10 73 51 73" id="bb"/><path fill="#333" d="M114-163C36-179 61-72 57 0H25l-1-190h30c1 12-1 29 2 39 6-27 23-49 58-41v29" id="bc"/><path fill="#333" d="M210-169c-67 3-38 105-44 169h-31v-121c0-29-5-50-35-48C34-165 62-65 56 0H25l-1-190h30c1 10-1 24 2 32 10-44 99-50 107 0 11-21 27-35 58-36 85-2 47 119 55 194h-31v-121c0-29-5-49-35-48" id="bd"/><path fill="#333" d="M59-47c-2 24 18 29 38 22v24C64 9 27 4 27-40v-127H5v-23h24l9-43h21v43h35v23H59v120" id="be"/><path fill="#333" d="M100-194c62-1 85 37 85 99 1 63-27 99-86 99S16-35 15-95c0-66 28-99 85-99zM99-20c44 1 53-31 53-75 0-43-8-75-51-75s-53 32-53 75 10 74 51 75" id="bf"/><g id="c"><use transform="matrix(0.05555555555555554,0,0,0.05555555555555554,0,0)" xlink:href="#aX"/><use transform="matrix(0.05555555555555554,0,0,0.05555555555555554,11.111111111111107,0)" xlink:href="#aY"/><use transform="matrix(0.05555555555555554,0,0,0.05555555555555554,22.222222222222214,0)" xlink:href="#aZ"/><use transform="matrix(0.05555555555555554,0,0,0.05555555555555554,32.222222222222214,0)" xlink:href="#ba"/><use transform="matrix(0.05555555555555554,0,0,0.05555555555555554,42.222222222222214,0)" xlink:href="#aM"/><use transform="matrix(0.05555555555555554,0,0,0.05555555555555554,53.33333333333332,0)" xlink:href="#bb"/><use transform="matrix(0.05555555555555554,0,0,0.05555555555555554,64.44444444444443,0)" xlink:href="#bc"/><use transform="matrix(0.05555555555555554,0,0,0.05555555555555554,71.05555555555554,0)" xlink:href="#aN"/><use transform="matrix(0.05555555555555554,0,0,0.05555555555555554,75.44444444444443,0)" xlink:href="#bd"/><use transform="matrix(0.05555555555555554,0,0,0.05555555555555554,92.05555555555554,0)" xlink:href="#aN"/><use transform="matrix(0.05555555555555554,0,0,0.05555555555555554,96.44444444444443,0)" xlink:href="#aY"/><use transform="matrix(0.05555555555555554,0,0,0.05555555555555554,107.55555555555554,0)" xlink:href="#aP"/><use transform="matrix(0.05555555555555554,0,0,0.05555555555555554,118.66666666666666,0)" xlink:href="#be"/><use transform="matrix(0.05555555555555554,0,0,0.05555555555555554,124.22222222222221,0)" xlink:href="#bf"/></g><path fill="#333" d="M101-234c-31-9-42 10-38 44h38v23H63V0H32v-167H5v-23h27c-7-52 17-82 69-68v24" id="bg"/><path fill="#333" d="M141-36C126-15 110 5 73 4 37 3 15-17 15-53c-1-64 63-63 125-63 3-35-9-54-41-54-24 1-41 7-42 31l-33-3c5-37 33-52 76-52 45 0 72 20 72 64v82c-1 20 7 32 28 27v20c-31 9-61-2-59-35zM48-53c0 20 12 33 32 33 41-3 63-29 60-74-43 2-92-5-92 41" id="bh"/><path fill="#333" d="M24 0v-261h32V0H24" id="bi"/><g id="d"><use transform="matrix(0.05555555555555554,0,0,0.05555555555555554,0,0)" xlink:href="#bg"/><use transform="matrix(0.05555555555555554,0,0,0.05555555555555554,5.555555555555554,0)" xlink:href="#bh"/><use transform="matrix(0.05555555555555554,0,0,0.05555555555555554,16.66666666666666,0)" xlink:href="#bd"/><use transform="matrix(0.05555555555555554,0,0,0.05555555555555554,33.27777777777777,0)" xlink:href="#aN"/><use transform="matrix(0.05555555555555554,0,0,0.05555555555555554,37.66666666666666,0)" xlink:href="#bi"/><use transform="matrix(0.05555555555555554,0,0,0.05555555555555554,42.05555555555554,0)" xlink:href="#aN"/><use transform="matrix(0.05555555555555554,0,0,0.05555555555555554,46.44444444444443,0)" xlink:href="#bh"/></g><g id="e"><use transform="matrix(0.05555555555555554,0,0,0.05555555555555554,0,0)" xlink:href="#aP"/><use transform="matrix(0.05555555555555554,0,0,0.05555555555555554,11.111111111111107,0)" xlink:href="#aM"/><use transform="matrix(0.05555555555555554,0,0,0.05555555555555554,22.222222222222214,0)" xlink:href="#bd"/><use transform="matrix(0.05555555555555554,0,0,0.05555555555555554,38.83333333333332,0)" xlink:href="#aY"/><use transform="matrix(0.05555555555555554,0,0,0.05555555555555554,49.94444444444443,0)" xlink:href="#bc"/><use transform="matrix(0.05555555555555554,0,0,0.05555555555555554,56.555555555555536,0)" xlink:href="#bf"/><use transform="matrix(0.05555555555555554,0,0,0.05555555555555554,67.66666666666664,0)" xlink:href="#aZ"/><use transform="matrix(0.05555555555555554,0,0,0.05555555555555554,77.66666666666664,0)" xlink:href="#bh"/></g><g id="f"><use transform="matrix(0.05555555555555554,0,0,0.05555555555555554,0,0)" xlink:href="#aY"/><use transform="matrix(0.05555555555555554,0,0,0.05555555555555554,11.111111111111107,0)" xlink:href="#aX"/><use transform="matrix(0.05555555555555554,0,0,0.05555555555555554,22.222222222222214,0)" xlink:href="#bh"/><use transform="matrix(0.05555555555555554,0,0,0.05555555555555554,33.33333333333332,0)" xlink:href="#aX"/></g><path fill="#333" d="M177-190C167-65 218 103 67 71c-23-6-38-20-44-43l32-5c15 47 100 32 89-28v-30C133-14 115 1 83 1 29 1 15-40 15-95c0-56 16-97 71-98 29-1 48 16 59 35 1-10 0-23 2-32h30zM94-22c36 0 50-32 50-73 0-42-14-75-50-75-39 0-46 34-46 75s6 73 46 73" id="bj"/><g id="g"><use transform="matrix(0.05555555555555554,0,0,0.05555555555555554,0,0)" xlink:href="#bj"/><use transform="matrix(0.05555555555555554,0,0,0.05555555555555554,11.111111111111107,0)" xlink:href="#aO"/><use transform="matrix(0.05555555555555554,0,0,0.05555555555555554,22.222222222222214,0)" xlink:href="#aP"/><use transform="matrix(0.05555555555555554,0,0,0.05555555555555554,33.33333333333332,0)" xlink:href="#aY"/><use transform="matrix(0.05555555555555554,0,0,0.05555555555555554,44.44444444444443,0)" xlink:href="#bc"/><use transform="matrix(0.05555555555555554,0,0,0.05555555555555554,51.055555555555536,0)" xlink:href="#bf"/></g><g id="h"><use transform="matrix(0.05555555555555554,0,0,0.05555555555555554,0,0)" xlink:href="#aP"/><use transform="matrix(0.05555555555555554,0,0,0.05555555555555554,11.111111111111107,0)" xlink:href="#bh"/><use transform="matrix(0.05555555555555554,0,0,0.05555555555555554,22.222222222222214,0)" xlink:href="#ba"/><use transform="matrix(0.05555555555555554,0,0,0.05555555555555554,32.222222222222214,0)" xlink:href="#aN"/><use transform="matrix(0.05555555555555554,0,0,0.05555555555555554,36.6111111111111,0)" xlink:href="#bf"/><use transform="matrix(0.05555555555555554,0,0,0.05555555555555554,47.72222222222221,0)" xlink:href="#aP"/><use transform="matrix(0.05555555555555554,0,0,0.05555555555555554,58.833333333333314,0)" xlink:href="#bh"/><use transform="matrix(0.05555555555555554,0,0,0.05555555555555554,69.94444444444443,0)" xlink:href="#bi"/><use transform="matrix(0.05555555555555554,0,0,0.05555555555555554,74.33333333333331,0)" xlink:href="#aN"/><use transform="matrix(0.05555555555555554,0,0,0.05555555555555554,78.7222222222222,0)" xlink:href="#aX"/><use transform="matrix(0.05555555555555554,0,0,0.05555555555555554,89.83333333333331,0)" xlink:href="#bh"/><use transform="matrix(0.05555555555555554,0,0,0.05555555555555554,100.94444444444443,0)" xlink:href="#aX"/></g><g id="i"><use transform="matrix(0.05555555555555554,0,0,0.05555555555555554,0,0)" xlink:href="#ba"/><use transform="matrix(0.05555555555555554,0,0,0.05555555555555554,9.999999999999996,0)" xlink:href="#bi"/><use transform="matrix(0.05555555555555554,0,0,0.05555555555555554,14.388888888888884,0)" xlink:href="#aN"/><use transform="matrix(0.05555555555555554,0,0,0.05555555555555554,18.77777777777777,0)" xlink:href="#aY"/><use transform="matrix(0.05555555555555554,0,0,0.05555555555555554,29.88888888888888,0)" xlink:href="#aP"/><use transform="matrix(0.05555555555555554,0,0,0.05555555555555554,40.999999999999986,0)" xlink:href="#be"/><use transform="matrix(0.05555555555555554,0,0,0.05555555555555554,46.55555555555554,0)" xlink:href="#aY"/></g><path fill="#333" d="M137 0h-34L2-248h35l83 218 83-218h36" id="bk"/><path fill="#333" d="M33 0v-248h34V0H33" id="bl"/><path fill="#333" d="M30-248c87 1 191-15 191 75 0 78-77 80-158 76V0H30v-248zm33 125c57 0 124 11 124-50 0-59-68-47-124-48v98" id="bm"/><g id="j"><use transform="matrix(0.05555555555555554,0,0,0.05555555555555554,0,0)" xlink:href="#bk"/><use transform="matrix(0.05555555555555554,0,0,0.05555555555555554,13.333333333333329,0)" xlink:href="#bl"/><use transform="matrix(0.05555555555555554,0,0,0.05555555555555554,18.888888888888882,0)" xlink:href="#bm"/></g><path fill="#333" d="M100-194c62-1 85 37 85 99 1 63-27 99-86 99S16-35 15-95c0-66 28-99 85-99zM99-20c44 1 53-31 53-75 0-43-8-75-51-75s-53 32-53 75 10 74 51 75zM76-211c8-23 27-35 38-54h36v5l-58 49H76" id="bn"/><g id="k"><use transform="matrix(0.05555555555555554,0,0,0.05555555555555554,0,0)" xlink:href="#aZ"/><use transform="matrix(0.05555555555555554,0,0,0.05555555555555554,9.999999999999996,0)" xlink:href="#aN"/><use transform="matrix(0.05555555555555554,0,0,0.05555555555555554,14.388888888888884,0)" xlink:href="#be"/><use transform="matrix(0.05555555555555554,0,0,0.05555555555555554,19.944444444444436,0)" xlink:href="#aM"/><use transform="matrix(0.05555555555555554,0,0,0.05555555555555554,31.055555555555546,0)" xlink:href="#bh"/><use transform="matrix(0.05555555555555554,0,0,0.05555555555555554,42.16666666666665,0)" xlink:href="#ba"/><use transform="matrix(0.05555555555555554,0,0,0.05555555555555554,52.16666666666664,0)" xlink:href="#aN"/><use transform="matrix(0.05555555555555554,0,0,0.05555555555555554,56.55555555555553,0)" xlink:href="#bn"/><use transform="matrix(0.05555555555555554,0,0,0.05555555555555554,67.66666666666663,0)" xlink:href="#aP"/></g><path fill="#333" d="M108 0H70L1-190h34L89-25l56-165h34" id="bo"/><g id="l"><use transform="matrix(0.05555555555555554,0,0,0.05555555555555554,0,0)" xlink:href="#ba"/><use transform="matrix(0.05555555555555554,0,0,0.05555555555555554,9.999999999999996,0)" xlink:href="#aN"/><use transform="matrix(0.05555555555555554,0,0,0.05555555555555554,14.388888888888884,0)" xlink:href="#bo"/><use transform="matrix(0.05555555555555554,0,0,0.05555555555555554,24.38888888888888,0)" xlink:href="#aN"/><use transform="matrix(0.05555555555555554,0,0,0.05555555555555554,28.777777777777764,0)" xlink:href="#bi"/></g><g id="m"><use transform="matrix(0.05555555555555554,0,0,0.05555555555555554,0,0)" xlink:href="#bd"/><use transform="matrix(0.05555555555555554,0,0,0.05555555555555554,16.611111111111107,0)" xlink:href="#aY"/><use transform="matrix(0.05555555555555554,0,0,0.05555555555555554,27.722222222222214,0)" xlink:href="#aX"/><use transform="matrix(0.05555555555555554,0,0,0.05555555555555554,38.83333333333332,0)" xlink:href="#aN"/><use transform="matrix(0.05555555555555554,0,0,0.05555555555555554,43.22222222222221,0)" xlink:href="#bf"/></g><g id="n"><use transform="matrix(0.05555555555555554,0,0,0.05555555555555554,0,0)" xlink:href="#aX"/><use transform="matrix(0.05555555555555554,0,0,0.05555555555555554,11.111111111111107,0)" xlink:href="#aY"/></g><path fill="#333" d="M115-194c55 1 70 41 70 98S169 2 115 4C84 4 66-9 55-30l1 105H24l-1-265h31l2 30c10-21 28-34 59-34zm-8 174c40 0 45-34 45-75s-6-73-45-74c-42 0-51 32-51 76 0 43 10 73 51 73" id="bp"/><g id="o"><use transform="matrix(0.05555555555555554,0,0,0.05555555555555554,0,0)" xlink:href="#be"/><use transform="matrix(0.05555555555555554,0,0,0.05555555555555554,5.555555555555554,0)" xlink:href="#bc"/><use transform="matrix(0.05555555555555554,0,0,0.05555555555555554,12.166666666666663,0)" xlink:href="#bh"/><use transform="matrix(0.05555555555555554,0,0,0.05555555555555554,23.27777777777777,0)" xlink:href="#aP"/><use transform="matrix(0.05555555555555554,0,0,0.05555555555555554,34.38888888888888,0)" xlink:href="#aZ"/><use transform="matrix(0.05555555555555554,0,0,0.05555555555555554,44.38888888888887,0)" xlink:href="#bp"/><use transform="matrix(0.05555555555555554,0,0,0.05555555555555554,55.49999999999998,0)" xlink:href="#bf"/><use transform="matrix(0.05555555555555554,0,0,0.05555555555555554,66.61111111111109,0)" xlink:href="#bc"/><use transform="matrix(0.05555555555555554,0,0,0.05555555555555554,73.2222222222222,0)" xlink:href="#be"/><use transform="matrix(0.05555555555555554,0,0,0.05555555555555554,78.77777777777776,0)" xlink:href="#aY"/></g><path fill="#333" d="M34 0v-190h32V0H34zM24-211c8-23 27-35 38-54h36v5l-58 49H24" id="bq"/><g id="p"><use transform="matrix(0.05555555555555554,0,0,0.05555555555555554,0,0)" xlink:href="#bp"/><use transform="matrix(0.05555555555555554,0,0,0.05555555555555554,11.111111111111107,0)" xlink:href="#bh"/><use transform="matrix(0.05555555555555554,0,0,0.05555555555555554,22.222222222222214,0)" xlink:href="#bq"/><use transform="matrix(0.05555555555555554,0,0,0.05555555555555554,27.777777777777768,0)" xlink:href="#aZ"/></g><g id="q"><use transform="matrix(0.05555555555555554,0,0,0.05555555555555554,0,0)" xlink:href="#bc"/><use transform="matrix(0.05555555555555554,0,0,0.05555555555555554,6.611111111111109,0)" xlink:href="#aY"/><use transform="matrix(0.05555555555555554,0,0,0.05555555555555554,17.722222222222214,0)" xlink:href="#aZ"/><use transform="matrix(0.05555555555555554,0,0,0.05555555555555554,27.72222222222221,0)" xlink:href="#aN"/><use transform="matrix(0.05555555555555554,0,0,0.05555555555555554,32.1111111111111,0)" xlink:href="#aX"/><use transform="matrix(0.05555555555555554,0,0,0.05555555555555554,43.22222222222221,0)" xlink:href="#aY"/><use transform="matrix(0.05555555555555554,0,0,0.05555555555555554,54.333333333333314,0)" xlink:href="#aP"/><use transform="matrix(0.05555555555555554,0,0,0.05555555555555554,65.44444444444443,0)" xlink:href="#ba"/><use transform="matrix(0.05555555555555554,0,0,0.05555555555555554,75.44444444444443,0)" xlink:href="#aN"/><use transform="matrix(0.05555555555555554,0,0,0.05555555555555554,79.83333333333331,0)" xlink:href="#bh"/></g><path fill="#333" d="M24-248c93 1 206-16 204 79-1 75-69 88-152 82V0H24v-248zm52 121c47 0 100 7 100-41 0-47-54-39-100-39v80" id="br"/><path fill="#333" d="M133-34C117-15 103 5 69 4 32 3 11-16 11-54c-1-60 55-63 116-61 1-26-3-47-28-47-18 1-26 9-28 27l-52-2c7-38 36-58 82-57s74 22 75 68l1 82c-1 14 12 18 25 15v27c-30 8-71 5-69-32zm-48 3c29 0 43-24 42-57-32 0-66-3-65 30 0 17 8 27 23 27" id="bs"/><path fill="#333" d="M25 0v-190h50V0H25zm-5-208v-5l45-51h45v8l-60 48H20" id="bt"/><g id="r"><use transform="matrix(0.06234567901234567,0,0,0.06234567901234567,0,0)" xlink:href="#br"/><use transform="matrix(0.06234567901234567,0,0,0.06234567901234567,14.96296296296296,0)" xlink:href="#bs"/><use transform="matrix(0.06234567901234567,0,0,0.06234567901234567,27.432098765432094,0)" xlink:href="#bt"/><use transform="matrix(0.06234567901234567,0,0,0.06234567901234567,33.66666666666666,0)" xlink:href="#aT"/></g><g id="s"><use transform="matrix(0.06234567901234567,0,0,0.06234567901234567,0,0)" xlink:href="#aW"/><use transform="matrix(0.06234567901234567,0,0,0.06234567901234567,13.653703703703702,0)" xlink:href="#aV"/></g><path fill="#333" d="M135-150c-39-12-60 13-60 57V0H25l-1-190h47c2 13-1 29 3 40 6-28 27-53 61-41v41" id="bu"/><path fill="#333" d="M25-224v-37h50v37H25zM25 0v-190h50V0H25" id="bv"/><path fill="#333" d="M135-194c87-1 58 113 63 194h-50c-7-57 23-157-34-157-59 0-34 97-39 157H25l-1-190h47c2 12-1 28 3 38 12-26 28-41 61-42" id="bw"/><path fill="#333" d="M190-63c-7 42-38 67-86 67-59 0-84-38-90-98-12-110 154-137 174-36l-49 2c-2-19-15-32-35-32-30 0-35 28-38 64-6 74 65 87 74 30" id="bx"/><g id="t"><use transform="matrix(0.06234567901234567,0,0,0.06234567901234567,0,0)" xlink:href="#bu"/><use transform="matrix(0.06234567901234567,0,0,0.06234567901234567,8.728395061728394,0)" xlink:href="#aV"/><use transform="matrix(0.06234567901234567,0,0,0.06234567901234567,21.197530864197525,0)" xlink:href="#aT"/><use transform="matrix(0.06234567901234567,0,0,0.06234567901234567,33.66666666666666,0)" xlink:href="#bv"/><use transform="matrix(0.06234567901234567,0,0,0.06234567901234567,39.90123456790123,0)" xlink:href="#aW"/><use transform="matrix(0.06234567901234567,0,0,0.06234567901234567,53.554938271604925,0)" xlink:href="#aV"/><use transform="matrix(0.06234567901234567,0,0,0.06234567901234567,66.02407407407406,0)" xlink:href="#bw"/><use transform="matrix(0.06234567901234567,0,0,0.06234567901234567,79.67777777777776,0)" xlink:href="#bx"/><use transform="matrix(0.06234567901234567,0,0,0.06234567901234567,92.14691358024689,0)" xlink:href="#bv"/><use transform="matrix(0.06234567901234567,0,0,0.06234567901234567,98.38148148148146,0)" xlink:href="#bs"/></g><g id="u"><use transform="matrix(0.05555555555555554,0,0,0.05555555555555554,0,0)" xlink:href="#bp"/><use transform="matrix(0.05555555555555554,0,0,0.05555555555555554,11.111111111111107,0)" xlink:href="#bh"/><use transform="matrix(0.05555555555555554,0,0,0.05555555555555554,22.222222222222214,0)" xlink:href="#bq"/><use transform="matrix(0.05555555555555554,0,0,0.05555555555555554,27.777777777777768,0)" xlink:href="#aZ"/></g><g id="v"><use transform="matrix(0.05555555555555554,0,0,0.05555555555555554,0,0)" xlink:href="#aN"/><use transform="matrix(0.05555555555555554,0,0,0.05555555555555554,4.3888888888888875,0)" xlink:href="#aP"/><use transform="matrix(0.05555555555555554,0,0,0.05555555555555554,15.499999999999995,0)" xlink:href="#bj"/><use transform="matrix(0.05555555555555554,0,0,0.05555555555555554,26.6111111111111,0)" xlink:href="#bc"/><use transform="matrix(0.05555555555555554,0,0,0.05555555555555554,33.22222222222221,0)" xlink:href="#aY"/><use transform="matrix(0.05555555555555554,0,0,0.05555555555555554,44.333333333333314,0)" xlink:href="#aZ"/><use transform="matrix(0.05555555555555554,0,0,0.05555555555555554,54.333333333333314,0)" xlink:href="#bf"/><use transform="matrix(0.05555555555555554,0,0,0.05555555555555554,65.44444444444443,0)" xlink:href="#aZ"/></g><g id="w"><use transform="matrix(0.05555555555555554,0,0,0.05555555555555554,0,0)" xlink:href="#bd"/><use transform="matrix(0.05555555555555554,0,0,0.05555555555555554,16.611111111111107,0)" xlink:href="#aY"/><use transform="matrix(0.05555555555555554,0,0,0.05555555555555554,27.722222222222214,0)" xlink:href="#aX"/><use transform="matrix(0.05555555555555554,0,0,0.05555555555555554,38.83333333333332,0)" xlink:href="#aN"/><use transform="matrix(0.05555555555555554,0,0,0.05555555555555554,43.22222222222221,0)" xlink:href="#bf"/><use transform="matrix(0.05555555555555554,0,0,0.05555555555555554,54.333333333333314,0)" xlink:href="#aZ"/></g><path fill="#333" d="M30-248c118-7 216 8 213 122C240-48 200 0 122 0H30v-248zM63-27c89 8 146-16 146-99s-60-101-146-95v194" id="by"/><g id="x"><use transform="matrix(0.07407407407407407,0,0,0.07407407407407407,0,0)" xlink:href="#by"/><use transform="matrix(0.07407407407407407,0,0,0.07407407407407407,19.185185185185183,0)" xlink:href="#bn"/><use transform="matrix(0.07407407407407407,0,0,0.07407407407407407,34,0)" xlink:href="#aP"/><use transform="matrix(0.07407407407407407,0,0,0.07407407407407407,48.81481481481481,0)" xlink:href="#aX"/><use transform="matrix(0.07407407407407407,0,0,0.07407407407407407,63.62962962962962,0)" xlink:href="#aY"/></g><path fill="#333" d="M110-194c64 0 96 36 96 99 0 64-35 99-97 99-61 0-95-36-95-99 0-62 34-99 96-99zm-1 164c35 0 45-28 45-65 0-40-10-65-43-65-34 0-45 26-45 65 0 36 10 65 43 65" id="bz"/><path fill="#333" d="M115-3C79 11 28 4 28-45v-112H4v-33h27l15-45h31v45h36v33H77v99c-1 23 16 31 38 25v30" id="bA"/><path fill="#333" d="M25 0v-261h50V0H25" id="bB"/><g id="y"><use transform="matrix(0.06234567901234567,0,0,0.06234567901234567,0,0)" xlink:href="#aQ"/><use transform="matrix(0.06234567901234567,0,0,0.06234567901234567,16.147530864197527,0)" xlink:href="#bz"/><use transform="matrix(0.06234567901234567,0,0,0.06234567901234567,29.80123456790123,0)" xlink:href="#bA"/><use transform="matrix(0.06234567901234567,0,0,0.06234567901234567,37.22037037037036,0)" xlink:href="#aV"/><use transform="matrix(0.06234567901234567,0,0,0.06234567901234567,49.689506172839494,0)" xlink:href="#bB"/></g><g id="z"><use transform="matrix(0.05555555555555554,0,0,0.05555555555555554,0,0)" xlink:href="#be"/><use transform="matrix(0.05555555555555554,0,0,0.05555555555555554,5.555555555555554,0)" xlink:href="#aN"/><use transform="matrix(0.05555555555555554,0,0,0.05555555555555554,9.944444444444441,0)" xlink:href="#bp"/><use transform="matrix(0.05555555555555554,0,0,0.05555555555555554,21.05555555555555,0)" xlink:href="#bf"/></g><g id="A"><use transform="matrix(0.05555555555555554,0,0,0.05555555555555554,0,0)" xlink:href="#aY"/><use transform="matrix(0.05555555555555554,0,0,0.05555555555555554,11.111111111111107,0)" xlink:href="#aZ"/><use transform="matrix(0.05555555555555554,0,0,0.05555555555555554,21.111111111111104,0)" xlink:href="#be"/><use transform="matrix(0.05555555555555554,0,0,0.05555555555555554,26.666666666666657,0)" xlink:href="#bc"/><use transform="matrix(0.05555555555555554,0,0,0.05555555555555554,33.277777777777764,0)" xlink:href="#aY"/><use transform="matrix(0.05555555555555554,0,0,0.05555555555555554,44.38888888888887,0)" xlink:href="#bi"/><use transform="matrix(0.05555555555555554,0,0,0.05555555555555554,48.77777777777776,0)" xlink:href="#bi"/><use transform="matrix(0.05555555555555554,0,0,0.05555555555555554,53.16666666666664,0)" xlink:href="#bh"/><use transform="matrix(0.05555555555555554,0,0,0.05555555555555554,64.27777777777774,0)" xlink:href="#aZ"/></g><g id="B"><use transform="matrix(0.05555555555555554,0,0,0.05555555555555554,0,0)" xlink:href="#bp"/><use transform="matrix(0.05555555555555554,0,0,0.05555555555555554,11.111111111111107,0)" xlink:href="#bc"/><use transform="matrix(0.05555555555555554,0,0,0.05555555555555554,17.722222222222214,0)" xlink:href="#aY"/><use transform="matrix(0.05555555555555554,0,0,0.05555555555555554,28.833333333333325,0)" xlink:href="#aZ"/><use transform="matrix(0.05555555555555554,0,0,0.05555555555555554,38.833333333333314,0)" xlink:href="#aM"/><use transform="matrix(0.05555555555555554,0,0,0.05555555555555554,49.94444444444442,0)" xlink:href="#bp"/><use transform="matrix(0.05555555555555554,0,0,0.05555555555555554,61.05555555555552,0)" xlink:href="#aM"/><use transform="matrix(0.05555555555555554,0,0,0.05555555555555554,72.16666666666663,0)" xlink:href="#aY"/><use transform="matrix(0.05555555555555554,0,0,0.05555555555555554,83.27777777777774,0)" xlink:href="#aZ"/><use transform="matrix(0.05555555555555554,0,0,0.05555555555555554,93.27777777777774,0)" xlink:href="#be"/><use transform="matrix(0.05555555555555554,0,0,0.05555555555555554,98.8333333333333,0)" xlink:href="#bf"/></g><g id="C"><use transform="matrix(0.05555555555555554,0,0,0.05555555555555554,0,0)" xlink:href="#bp"/><use transform="matrix(0.05555555555555554,0,0,0.05555555555555554,11.111111111111107,0)" xlink:href="#bc"/><use transform="matrix(0.05555555555555554,0,0,0.05555555555555554,17.722222222222214,0)" xlink:href="#aY"/><use transform="matrix(0.05555555555555554,0,0,0.05555555555555554,28.833333333333325,0)" xlink:href="#aZ"/><use transform="matrix(0.05555555555555554,0,0,0.05555555555555554,38.833333333333314,0)" xlink:href="#aM"/><use transform="matrix(0.05555555555555554,0,0,0.05555555555555554,49.94444444444442,0)" xlink:href="#bp"/><use transform="matrix(0.05555555555555554,0,0,0.05555555555555554,61.05555555555552,0)" xlink:href="#aM"/><use transform="matrix(0.05555555555555554,0,0,0.05555555555555554,72.16666666666663,0)" xlink:href="#aY"/><use transform="matrix(0.05555555555555554,0,0,0.05555555555555554,83.27777777777774,0)" xlink:href="#aZ"/><use transform="matrix(0.05555555555555554,0,0,0.05555555555555554,93.27777777777774,0)" xlink:href="#be"/><use transform="matrix(0.05555555555555554,0,0,0.05555555555555554,98.8333333333333,0)" xlink:href="#bf"/></g><path fill="#333" d="M143 0L79-87 56-68V0H24v-261h32v163l83-92h37l-77 82L181 0h-38" id="bC"/><g id="D"><use transform="matrix(0.05555555555555554,0,0,0.05555555555555554,0,0)" xlink:href="#bd"/><use transform="matrix(0.05555555555555554,0,0,0.05555555555555554,16.611111111111107,0)" xlink:href="#bh"/><use transform="matrix(0.05555555555555554,0,0,0.05555555555555554,27.722222222222214,0)" xlink:href="#bc"/><use transform="matrix(0.05555555555555554,0,0,0.05555555555555554,34.33333333333332,0)" xlink:href="#bC"/><use transform="matrix(0.05555555555555554,0,0,0.05555555555555554,44.333333333333314,0)" xlink:href="#aY"/><use transform="matrix(0.05555555555555554,0,0,0.05555555555555554,55.44444444444442,0)" xlink:href="#be"/><use transform="matrix(0.05555555555555554,0,0,0.05555555555555554,60.99999999999997,0)" xlink:href="#aN"/><use transform="matrix(0.05555555555555554,0,0,0.05555555555555554,65.38888888888886,0)" xlink:href="#aP"/><use transform="matrix(0.05555555555555554,0,0,0.05555555555555554,76.49999999999997,0)" xlink:href="#bj"/></g><g id="E"><use transform="matrix(0.05555555555555554,0,0,0.05555555555555554,0,0)" xlink:href="#aN"/><use transform="matrix(0.05555555555555554,0,0,0.05555555555555554,4.3888888888888875,0)" xlink:href="#aP"/><use transform="matrix(0.05555555555555554,0,0,0.05555555555555554,15.499999999999995,0)" xlink:href="#bj"/><use transform="matrix(0.05555555555555554,0,0,0.05555555555555554,26.6111111111111,0)" xlink:href="#bc"/><use transform="matrix(0.05555555555555554,0,0,0.05555555555555554,33.22222222222221,0)" xlink:href="#aY"/><use transform="matrix(0.05555555555555554,0,0,0.05555555555555554,44.333333333333314,0)" xlink:href="#aZ"/><use transform="matrix(0.05555555555555554,0,0,0.05555555555555554,54.333333333333314,0)" xlink:href="#bf"/><use transform="matrix(0.05555555555555554,0,0,0.05555555555555554,65.44444444444443,0)" xlink:href="#aZ"/></g><g id="F"><use transform="matrix(0.05555555555555554,0,0,0.05555555555555554,0,0)" xlink:href="#bp"/><use transform="matrix(0.05555555555555554,0,0,0.05555555555555554,11.111111111111107,0)" xlink:href="#bh"/><use transform="matrix(0.05555555555555554,0,0,0.05555555555555554,22.222222222222214,0)" xlink:href="#bc"/><use transform="matrix(0.05555555555555554,0,0,0.05555555555555554,28.833333333333325,0)" xlink:href="#bC"/><use transform="matrix(0.05555555555555554,0,0,0.05555555555555554,38.833333333333314,0)" xlink:href="#aN"/><use transform="matrix(0.05555555555555554,0,0,0.05555555555555554,43.2222222222222,0)" xlink:href="#aP"/><use transform="matrix(0.05555555555555554,0,0,0.05555555555555554,54.33333333333331,0)" xlink:href="#bj"/></g><g id="G"><use transform="matrix(0.05555555555555554,0,0,0.05555555555555554,0,0)" xlink:href="#bo"/><use transform="matrix(0.05555555555555554,0,0,0.05555555555555554,9.999999999999996,0)" xlink:href="#bh"/><use transform="matrix(0.05555555555555554,0,0,0.05555555555555554,21.111111111111104,0)" xlink:href="#bi"/><use transform="matrix(0.05555555555555554,0,0,0.05555555555555554,25.499999999999993,0)" xlink:href="#bf"/><use transform="matrix(0.05555555555555554,0,0,0.05555555555555554,36.6111111111111,0)" xlink:href="#bc"/><use transform="matrix(0.05555555555555554,0,0,0.05555555555555554,43.22222222222221,0)" xlink:href="#bh"/><use transform="matrix(0.05555555555555554,0,0,0.05555555555555554,54.333333333333314,0)" xlink:href="#ba"/><use transform="matrix(0.05555555555555554,0,0,0.05555555555555554,64.33333333333331,0)" xlink:href="#aN"/><use transform="matrix(0.05555555555555554,0,0,0.05555555555555554,68.7222222222222,0)" xlink:href="#bn"/><use transform="matrix(0.05555555555555554,0,0,0.05555555555555554,79.83333333333331,0)" xlink:href="#aP"/></g><g id="H"><use transform="matrix(0.05555555555555554,0,0,0.05555555555555554,0,0)" xlink:href="#be"/><use transform="matrix(0.05555555555555554,0,0,0.05555555555555554,5.555555555555554,0)" xlink:href="#bc"/><use transform="matrix(0.05555555555555554,0,0,0.05555555555555554,12.166666666666663,0)" xlink:href="#bh"/><use transform="matrix(0.05555555555555554,0,0,0.05555555555555554,23.27777777777777,0)" xlink:href="#aZ"/><use transform="matrix(0.05555555555555554,0,0,0.05555555555555554,33.27777777777777,0)" xlink:href="#bi"/><use transform="matrix(0.05555555555555554,0,0,0.05555555555555554,37.66666666666666,0)" xlink:href="#bh"/><use transform="matrix(0.05555555555555554,0,0,0.05555555555555554,48.777777777777764,0)" xlink:href="#aX"/><use transform="matrix(0.05555555555555554,0,0,0.05555555555555554,59.88888888888887,0)" xlink:href="#bf"/></g><use transform="matrix(0.05555555555555554,0,0,0.05555555555555554,0,0)" xlink:href="#bh" id="I"/><g id="J"><use transform="matrix(0.05555555555555554,0,0,0.05555555555555554,0,0)" xlink:href="#bh"/><use transform="matrix(0.05555555555555554,0,0,0.05555555555555554,11.111111111111107,0)" xlink:href="#aY"/><use transform="matrix(0.05555555555555554,0,0,0.05555555555555554,22.222222222222214,0)" xlink:href="#bc"/><use transform="matrix(0.05555555555555554,0,0,0.05555555555555554,28.833333333333325,0)" xlink:href="#bf"/><use transform="matrix(0.05555555555555554,0,0,0.05555555555555554,39.94444444444443,0)" xlink:href="#bp"/><use transform="matrix(0.05555555555555554,0,0,0.05555555555555554,51.055555555555536,0)" xlink:href="#aM"/><use transform="matrix(0.05555555555555554,0,0,0.05555555555555554,62.16666666666665,0)" xlink:href="#aY"/><use transform="matrix(0.05555555555555554,0,0,0.05555555555555554,73.27777777777774,0)" xlink:href="#bc"/><use transform="matrix(0.05555555555555554,0,0,0.05555555555555554,79.88888888888886,0)" xlink:href="#be"/><use transform="matrix(0.05555555555555554,0,0,0.05555555555555554,85.44444444444441,0)" xlink:href="#bf"/></g><g id="K"><use transform="matrix(0.05555555555555554,0,0,0.05555555555555554,0,0)" xlink:href="#bh"/><use transform="matrix(0.05555555555555554,0,0,0.05555555555555554,11.111111111111107,0)" xlink:href="#aZ"/><use transform="matrix(0.05555555555555554,0,0,0.05555555555555554,21.111111111111104,0)" xlink:href="#ba"/><use transform="matrix(0.05555555555555554,0,0,0.05555555555555554,31.1111111111111,0)" xlink:href="#aY"/><use transform="matrix(0.05555555555555554,0,0,0.05555555555555554,42.22222222222221,0)" xlink:href="#aP"/><use transform="matrix(0.05555555555555554,0,0,0.05555555555555554,53.333333333333314,0)" xlink:href="#aZ"/><use transform="matrix(0.05555555555555554,0,0,0.05555555555555554,63.333333333333314,0)" xlink:href="#bf"/><use transform="matrix(0.05555555555555554,0,0,0.05555555555555554,74.44444444444443,0)" xlink:href="#bc"/></g><g id="L"><use transform="matrix(0.05555555555555554,0,0,0.05555555555555554,0,0)" xlink:href="#aZ"/><use transform="matrix(0.05555555555555554,0,0,0.05555555555555554,9.999999999999996,0)" xlink:href="#aY"/><use transform="matrix(0.05555555555555554,0,0,0.05555555555555554,21.111111111111104,0)" xlink:href="#bc"/><use transform="matrix(0.05555555555555554,0,0,0.05555555555555554,27.722222222222214,0)" xlink:href="#bo"/><use transform="matrix(0.05555555555555554,0,0,0.05555555555555554,37.722222222222214,0)" xlink:href="#aN"/><use transform="matrix(0.05555555555555554,0,0,0.05555555555555554,42.1111111111111,0)" xlink:href="#ba"/><use transform="matrix(0.05555555555555554,0,0,0.05555555555555554,52.1111111111111,0)" xlink:href="#aN"/><use transform="matrix(0.05555555555555554,0,0,0.05555555555555554,56.499999999999986,0)" xlink:href="#bf"/></g><path fill="#333" d="M106-169C34-169 62-67 57 0H25v-261h32l-1 103c12-21 28-36 61-36 89 0 53 116 60 194h-32v-121c2-32-8-49-39-48" id="bD"/><g id="M"><use transform="matrix(0.05555555555555554,0,0,0.05555555555555554,0,0)" xlink:href="#bD"/><use transform="matrix(0.05555555555555554,0,0,0.05555555555555554,11.111111111111107,0)" xlink:href="#bh"/><use transform="matrix(0.05555555555555554,0,0,0.05555555555555554,22.222222222222214,0)" xlink:href="#bb"/><use transform="matrix(0.05555555555555554,0,0,0.05555555555555554,33.33333333333332,0)" xlink:href="#aN"/><use transform="matrix(0.05555555555555554,0,0,0.05555555555555554,37.72222222222221,0)" xlink:href="#be"/><use transform="matrix(0.05555555555555554,0,0,0.05555555555555554,43.27777777777776,0)" xlink:href="#bh"/><use transform="matrix(0.05555555555555554,0,0,0.05555555555555554,54.388888888888864,0)" xlink:href="#ba"/><use transform="matrix(0.05555555555555554,0,0,0.05555555555555554,64.38888888888886,0)" xlink:href="#aN"/><use transform="matrix(0.05555555555555554,0,0,0.05555555555555554,68.77777777777774,0)" xlink:href="#bf"/><use transform="matrix(0.05555555555555554,0,0,0.05555555555555554,79.88888888888886,0)" xlink:href="#aP"/><use transform="matrix(0.05555555555555554,0,0,0.05555555555555554,90.99999999999997,0)" xlink:href="#aY"/><use transform="matrix(0.05555555555555554,0,0,0.05555555555555554,102.11111111111109,0)" xlink:href="#aZ"/></g><g id="N"><use transform="matrix(0.05555555555555554,0,0,0.05555555555555554,0,0)" xlink:href="#aX"/><use transform="matrix(0.05555555555555554,0,0,0.05555555555555554,11.111111111111107,0)" xlink:href="#aN"/><use transform="matrix(0.05555555555555554,0,0,0.05555555555555554,15.499999999999995,0)" xlink:href="#aZ"/><use transform="matrix(0.05555555555555554,0,0,0.05555555555555554,25.499999999999993,0)" xlink:href="#be"/><use transform="matrix(0.05555555555555554,0,0,0.05555555555555554,31.055555555555546,0)" xlink:href="#bh"/><use transform="matrix(0.05555555555555554,0,0,0.05555555555555554,42.16666666666666,0)" xlink:href="#aP"/><use transform="matrix(0.05555555555555554,0,0,0.05555555555555554,53.277777777777764,0)" xlink:href="#ba"/><use transform="matrix(0.05555555555555554,0,0,0.05555555555555554,63.27777777777776,0)" xlink:href="#aN"/><use transform="matrix(0.05555555555555554,0,0,0.05555555555555554,67.66666666666664,0)" xlink:href="#bh"/></g><g id="O"><use transform="matrix(0.05555555555555554,0,0,0.05555555555555554,0,0)" xlink:href="#bh"/><use transform="matrix(0.05555555555555554,0,0,0.05555555555555554,11.111111111111107,0)" xlink:href="#bi"/></g><g id="P"><use transform="matrix(0.05555555555555554,0,0,0.05555555555555554,0,0)" xlink:href="#ba"/><use transform="matrix(0.05555555555555554,0,0,0.05555555555555554,9.999999999999996,0)" xlink:href="#aY"/><use transform="matrix(0.05555555555555554,0,0,0.05555555555555554,21.111111111111104,0)" xlink:href="#aP"/><use transform="matrix(0.05555555555555554,0,0,0.05555555555555554,32.222222222222214,0)" xlink:href="#be"/><use transform="matrix(0.05555555555555554,0,0,0.05555555555555554,37.77777777777777,0)" xlink:href="#bc"/><use transform="matrix(0.05555555555555554,0,0,0.05555555555555554,44.38888888888888,0)" xlink:href="#bf"/></g><g id="Q"><use transform="matrix(0.05555555555555554,0,0,0.05555555555555554,0,0)" xlink:href="#bi"/><use transform="matrix(0.05555555555555554,0,0,0.05555555555555554,4.3888888888888875,0)" xlink:href="#bh"/></g><path fill="#333" d="M179-190L93 31C79 59 56 82 12 73V49c39 6 53-20 64-50L1-190h34L92-34l54-156h33" id="bE"/><g id="R"><use transform="matrix(0.05555555555555554,0,0,0.05555555555555554,0,0)" xlink:href="#bp"/><use transform="matrix(0.05555555555555554,0,0,0.05555555555555554,11.111111111111107,0)" xlink:href="#bi"/><use transform="matrix(0.05555555555555554,0,0,0.05555555555555554,15.499999999999995,0)" xlink:href="#bh"/><use transform="matrix(0.05555555555555554,0,0,0.05555555555555554,26.6111111111111,0)" xlink:href="#bE"/><use transform="matrix(0.05555555555555554,0,0,0.05555555555555554,36.6111111111111,0)" xlink:href="#bh"/></g><g id="S"><use transform="matrix(0.05555555555555554,0,0,0.05555555555555554,0,0)" xlink:href="#ba"/><use transform="matrix(0.05555555555555554,0,0,0.05555555555555554,9.999999999999996,0)" xlink:href="#aN"/><use transform="matrix(0.05555555555555554,0,0,0.05555555555555554,14.388888888888884,0)" xlink:href="#aM"/><use transform="matrix(0.05555555555555554,0,0,0.05555555555555554,25.499999999999993,0)" xlink:href="#aX"/><use transform="matrix(0.05555555555555554,0,0,0.05555555555555554,36.6111111111111,0)" xlink:href="#bh"/><use transform="matrix(0.05555555555555554,0,0,0.05555555555555554,47.72222222222221,0)" xlink:href="#aX"/></g><path fill="#333" d="M67-125c0 53 21 87 73 88 37 1 54-22 65-47l45 17C233-25 199 4 140 4 58 4 20-42 15-125 8-235 124-281 211-232c18 10 29 29 36 50l-46 12c-8-25-30-41-62-41-52 0-71 34-72 86" id="bF"/><g id="T"><use transform="matrix(0.06234567901234567,0,0,0.06234567901234567,0,0)" xlink:href="#bF"/><use transform="matrix(0.06234567901234567,0,0,0.06234567901234567,16.147530864197527,0)" xlink:href="#bv"/><use transform="matrix(0.06234567901234567,0,0,0.06234567901234567,22.382098765432094,0)" xlink:href="#aR"/><use transform="matrix(0.06234567901234567,0,0,0.06234567901234567,36.035802469135795,0)" xlink:href="#aW"/><use transform="matrix(0.06234567901234567,0,0,0.06234567901234567,49.6895061728395,0)" xlink:href="#bs"/><use transform="matrix(0.06234567901234567,0,0,0.06234567901234567,62.15864197530863,0)" xlink:href="#aW"/></g><g id="U"><use transform="matrix(0.05555555555555554,0,0,0.05555555555555554,0,0)" xlink:href="#ba"/><use transform="matrix(0.05555555555555554,0,0,0.05555555555555554,9.999999999999996,0)" xlink:href="#aN"/><use transform="matrix(0.05555555555555554,0,0,0.05555555555555554,14.388888888888884,0)" xlink:href="#aM"/><use transform="matrix(0.05555555555555554,0,0,0.05555555555555554,25.499999999999993,0)" xlink:href="#aX"/><use transform="matrix(0.05555555555555554,0,0,0.05555555555555554,36.6111111111111,0)" xlink:href="#bh"/><use transform="matrix(0.05555555555555554,0,0,0.05555555555555554,47.72222222222221,0)" xlink:href="#aX"/></g><g id="V"><use transform="matrix(0.05555555555555554,0,0,0.05555555555555554,0,0)" xlink:href="#bp"/><use transform="matrix(0.05555555555555554,0,0,0.05555555555555554,11.111111111111107,0)" xlink:href="#bh"/><use transform="matrix(0.05555555555555554,0,0,0.05555555555555554,22.222222222222214,0)" xlink:href="#bq"/><use transform="matrix(0.05555555555555554,0,0,0.05555555555555554,27.777777777777768,0)" xlink:href="#aZ"/></g><g id="W"><use transform="matrix(0.06234567901234567,0,0,0.06234567901234567,0,0)" xlink:href="#br"/><use transform="matrix(0.06234567901234567,0,0,0.06234567901234567,14.96296296296296,0)" xlink:href="#bs"/><use transform="matrix(0.06234567901234567,0,0,0.06234567901234567,27.432098765432094,0)" xlink:href="#bt"/><use transform="matrix(0.06234567901234567,0,0,0.06234567901234567,33.66666666666666,0)" xlink:href="#aT"/></g><g id="X"><use transform="matrix(0.05555555555555554,0,0,0.05555555555555554,0,0)" xlink:href="#be"/><use transform="matrix(0.05555555555555554,0,0,0.05555555555555554,5.555555555555554,0)" xlink:href="#aY"/><use transform="matrix(0.05555555555555554,0,0,0.05555555555555554,16.66666666666666,0)" xlink:href="#bd"/><use transform="matrix(0.05555555555555554,0,0,0.05555555555555554,33.27777777777777,0)" xlink:href="#bp"/><use transform="matrix(0.05555555555555554,0,0,0.05555555555555554,44.38888888888888,0)" xlink:href="#aY"/><use transform="matrix(0.05555555555555554,0,0,0.05555555555555554,55.499999999999986,0)" xlink:href="#bc"/><use transform="matrix(0.05555555555555554,0,0,0.05555555555555554,62.11111111111109,0)" xlink:href="#bh"/><use transform="matrix(0.05555555555555554,0,0,0.05555555555555554,73.2222222222222,0)" xlink:href="#be"/><use transform="matrix(0.05555555555555554,0,0,0.05555555555555554,78.77777777777776,0)" xlink:href="#aM"/><use transform="matrix(0.05555555555555554,0,0,0.05555555555555554,89.88888888888886,0)" xlink:href="#bc"/><use transform="matrix(0.05555555555555554,0,0,0.05555555555555554,96.49999999999997,0)" xlink:href="#bh"/></g><g id="Y"><use transform="matrix(0.05555555555555554,0,0,0.05555555555555554,0,0)" xlink:href="#bp"/><use transform="matrix(0.05555555555555554,0,0,0.05555555555555554,11.111111111111107,0)" xlink:href="#bf"/><use transform="matrix(0.05555555555555554,0,0,0.05555555555555554,22.222222222222214,0)" xlink:href="#bb"/><use transform="matrix(0.05555555555555554,0,0,0.05555555555555554,33.33333333333332,0)" xlink:href="#bi"/><use transform="matrix(0.05555555555555554,0,0,0.05555555555555554,37.72222222222221,0)" xlink:href="#bh"/><use transform="matrix(0.05555555555555554,0,0,0.05555555555555554,48.833333333333314,0)" xlink:href="#ba"/><use transform="matrix(0.05555555555555554,0,0,0.05555555555555554,58.833333333333314,0)" xlink:href="#aN"/><use transform="matrix(0.05555555555555554,0,0,0.05555555555555554,63.2222222222222,0)" xlink:href="#bn"/><use transform="matrix(0.05555555555555554,0,0,0.05555555555555554,74.33333333333331,0)" xlink:href="#aP"/></g><g id="Z"><use transform="matrix(0.07407407407407407,0,0,0.07407407407407407,0,0)" xlink:href="#aL"/><use transform="matrix(0.07407407407407407,0,0,0.07407407407407407,20.74074074074074,0)" xlink:href="#aM"/><use transform="matrix(0.07407407407407407,0,0,0.07407407407407407,35.55555555555556,0)" xlink:href="#aO"/></g><path fill="#333" d="M24 0v-248h195v40H76v63h132v40H76v65h150V0H24" id="bG"/><g id="aa"><use transform="matrix(0.06234567901234567,0,0,0.06234567901234567,0,0)" xlink:href="#bG"/><use transform="matrix(0.06234567901234567,0,0,0.06234567901234567,14.96296296296296,0)" xlink:href="#aT"/><use transform="matrix(0.06234567901234567,0,0,0.06234567901234567,27.432098765432094,0)" xlink:href="#aU"/><use transform="matrix(0.06234567901234567,0,0,0.06234567901234567,41.0858024691358,0)" xlink:href="#bs"/><use transform="matrix(0.06234567901234567,0,0,0.06234567901234567,53.55493827160493,0)" xlink:href="#bx"/><use transform="matrix(0.06234567901234567,0,0,0.06234567901234567,66.02407407407406,0)" xlink:href="#bv"/><use transform="matrix(0.06234567901234567,0,0,0.06234567901234567,72.25864197530863,0)" xlink:href="#bz"/></g><path fill="#333" d="M25-224v-37h50v37H25zM75 22c2 45-34 59-81 51V38c22 5 31-5 31-27v-201h50V22" id="bH"/><g id="ab"><use transform="matrix(0.06234567901234567,0,0,0.06234567901234567,0,0)" xlink:href="#aQ"/><use transform="matrix(0.06234567901234567,0,0,0.06234567901234567,16.147530864197527,0)" xlink:href="#bz"/><use transform="matrix(0.06234567901234567,0,0,0.06234567901234567,29.80123456790123,0)" xlink:href="#aT"/><use transform="matrix(0.06234567901234567,0,0,0.06234567901234567,42.27037037037036,0)" xlink:href="#aU"/><use transform="matrix(0.06234567901234567,0,0,0.06234567901234567,55.924074074074056,0)" xlink:href="#aV"/><use transform="matrix(0.06234567901234567,0,0,0.06234567901234567,68.39320987654318,0)" xlink:href="#aW"/><use transform="matrix(0.06234567901234567,0,0,0.06234567901234567,82.04691358024688,0)" xlink:href="#bs"/><use transform="matrix(0.06234567901234567,0,0,0.06234567901234567,94.516049382716,0)" xlink:href="#bH"/><use transform="matrix(0.06234567901234567,0,0,0.06234567901234567,100.75061728395058,0)" xlink:href="#aV"/></g><g id="ac"><use transform="matrix(0.05555555555555554,0,0,0.05555555555555554,0,0)" xlink:href="#be"/><use transform="matrix(0.05555555555555554,0,0,0.05555555555555554,5.555555555555554,0)" xlink:href="#aN"/><use transform="matrix(0.05555555555555554,0,0,0.05555555555555554,9.944444444444441,0)" xlink:href="#bp"/><use transform="matrix(0.05555555555555554,0,0,0.05555555555555554,21.05555555555555,0)" xlink:href="#bf"/></g><path fill="#333" d="M24-231v-30h32v30H24zM-9 49c24 4 33-6 33-30v-209h32V24c2 40-23 58-65 49V49" id="bI"/><g id="ad"><use transform="matrix(0.05555555555555554,0,0,0.05555555555555554,0,0)" xlink:href="#bh"/><use transform="matrix(0.05555555555555554,0,0,0.05555555555555554,11.111111111111107,0)" xlink:href="#bi"/><use transform="matrix(0.05555555555555554,0,0,0.05555555555555554,15.499999999999995,0)" xlink:href="#bf"/><use transform="matrix(0.05555555555555554,0,0,0.05555555555555554,26.6111111111111,0)" xlink:href="#bI"/><use transform="matrix(0.05555555555555554,0,0,0.05555555555555554,30.999999999999986,0)" xlink:href="#bh"/><use transform="matrix(0.05555555555555554,0,0,0.05555555555555554,42.11111111111109,0)" xlink:href="#bd"/><use transform="matrix(0.05555555555555554,0,0,0.05555555555555554,58.72222222222221,0)" xlink:href="#aN"/><use transform="matrix(0.05555555555555554,0,0,0.05555555555555554,63.11111111111109,0)" xlink:href="#aY"/><use transform="matrix(0.05555555555555554,0,0,0.05555555555555554,74.2222222222222,0)" xlink:href="#aP"/><use transform="matrix(0.05555555555555554,0,0,0.05555555555555554,85.33333333333331,0)" xlink:href="#be"/><use transform="matrix(0.05555555555555554,0,0,0.05555555555555554,90.88888888888887,0)" xlink:href="#bf"/></g><path fill="#333" d="M9 0v-24l116-142H16v-24h144v24L44-24h123V0H9" id="bJ"/><g id="ae"><use transform="matrix(0.05555555555555554,0,0,0.05555555555555554,0,0)" xlink:href="#be"/><use transform="matrix(0.05555555555555554,0,0,0.05555555555555554,5.555555555555554,0)" xlink:href="#aY"/><use transform="matrix(0.05555555555555554,0,0,0.05555555555555554,16.66666666666666,0)" xlink:href="#bc"/><use transform="matrix(0.05555555555555554,0,0,0.05555555555555554,23.27777777777777,0)" xlink:href="#bc"/><use transform="matrix(0.05555555555555554,0,0,0.05555555555555554,29.88888888888888,0)" xlink:href="#bh"/><use transform="matrix(0.05555555555555554,0,0,0.05555555555555554,40.999999999999986,0)" xlink:href="#bJ"/><use transform="matrix(0.05555555555555554,0,0,0.05555555555555554,50.999999999999986,0)" xlink:href="#bh"/></g><path fill="#333" d="M85 4C-4 8 31-112 24-190h32v120c0 31 7 50 39 49 72-2 45-101 50-169h31l1 190h-30c-1-10 1-25-2-33-11 22-28 36-60 37zM73-211c8-23 27-35 38-54h36v5l-58 49H73" id="bK"/><g id="af"><use transform="matrix(0.05555555555555554,0,0,0.05555555555555554,0,0)" xlink:href="#aP"/><use transform="matrix(0.05555555555555554,0,0,0.05555555555555554,11.111111111111107,0)" xlink:href="#bK"/><use transform="matrix(0.05555555555555554,0,0,0.05555555555555554,22.222222222222214,0)" xlink:href="#bd"/><use transform="matrix(0.05555555555555554,0,0,0.05555555555555554,38.83333333333332,0)" xlink:href="#aY"/><use transform="matrix(0.05555555555555554,0,0,0.05555555555555554,49.94444444444443,0)" xlink:href="#bc"/><use transform="matrix(0.05555555555555554,0,0,0.05555555555555554,56.555555555555536,0)" xlink:href="#bf"/></g><path fill="#333" d="M118-194c89-4 53 116 60 194h-32v-121c0-31-8-49-39-48C35-167 63-67 58 0H26l-1-190h30c1 10-1 24 2 32 11-22 29-35 61-36zm47-64c-3 23-9 48-36 47-26-1-65-44-74 0H39c4-23 8-48 36-47s64 44 74 0h16" id="bL"/><g id="ag"><use transform="matrix(0.05555555555555554,0,0,0.05555555555555554,0,0)" xlink:href="#bb"/><use transform="matrix(0.05555555555555554,0,0,0.05555555555555554,11.111111111111107,0)" xlink:href="#bh"/><use transform="matrix(0.05555555555555554,0,0,0.05555555555555554,22.222222222222214,0)" xlink:href="#bL"/><use transform="matrix(0.05555555555555554,0,0,0.05555555555555554,33.33333333333332,0)" xlink:href="#bf"/><use transform="matrix(0.05555555555555554,0,0,0.05555555555555554,44.44444444444443,0)" xlink:href="#aZ"/></g><g id="ah"><use transform="matrix(0.05555555555555554,0,0,0.05555555555555554,0,0)" xlink:href="#ba"/><use transform="matrix(0.05555555555555554,0,0,0.05555555555555554,9.999999999999996,0)" xlink:href="#bh"/><use transform="matrix(0.05555555555555554,0,0,0.05555555555555554,21.111111111111104,0)" xlink:href="#bd"/><use transform="matrix(0.05555555555555554,0,0,0.05555555555555554,37.722222222222214,0)" xlink:href="#bh"/><use transform="matrix(0.05555555555555554,0,0,0.05555555555555554,48.83333333333332,0)" xlink:href="#aZ"/></g><g id="ai"><use transform="matrix(0.05555555555555554,0,0,0.05555555555555554,0,0)" xlink:href="#aZ"/><use transform="matrix(0.05555555555555554,0,0,0.05555555555555554,9.999999999999996,0)" xlink:href="#aM"/><use transform="matrix(0.05555555555555554,0,0,0.05555555555555554,21.111111111111104,0)" xlink:href="#bp"/><use transform="matrix(0.05555555555555554,0,0,0.05555555555555554,32.222222222222214,0)" xlink:href="#aY"/><use transform="matrix(0.05555555555555554,0,0,0.05555555555555554,43.33333333333332,0)" xlink:href="#bc"/><use transform="matrix(0.05555555555555554,0,0,0.05555555555555554,49.94444444444443,0)" xlink:href="#bg"/><use transform="matrix(0.05555555555555554,0,0,0.05555555555555554,55.499999999999986,0)" xlink:href="#aN"/><use transform="matrix(0.05555555555555554,0,0,0.05555555555555554,59.88888888888887,0)" xlink:href="#ba"/><use transform="matrix(0.05555555555555554,0,0,0.05555555555555554,69.88888888888887,0)" xlink:href="#aN"/><use transform="matrix(0.05555555555555554,0,0,0.05555555555555554,74.27777777777776,0)" xlink:href="#aY"/></g><g id="aj"><use transform="matrix(0.05555555555555554,0,0,0.05555555555555554,0,0)" xlink:href="#bi"/><use transform="matrix(0.05555555555555554,0,0,0.05555555555555554,4.3888888888888875,0)" xlink:href="#aM"/><use transform="matrix(0.05555555555555554,0,0,0.05555555555555554,15.499999999999995,0)" xlink:href="#bd"/><use transform="matrix(0.05555555555555554,0,0,0.05555555555555554,32.1111111111111,0)" xlink:href="#aN"/><use transform="matrix(0.05555555555555554,0,0,0.05555555555555554,36.499999999999986,0)" xlink:href="#aP"/><use transform="matrix(0.05555555555555554,0,0,0.05555555555555554,47.61111111111109,0)" xlink:href="#bf"/><use transform="matrix(0.05555555555555554,0,0,0.05555555555555554,58.72222222222221,0)" xlink:href="#aZ"/><use transform="matrix(0.05555555555555554,0,0,0.05555555555555554,68.7222222222222,0)" xlink:href="#aN"/><use transform="matrix(0.05555555555555554,0,0,0.05555555555555554,73.11111111111109,0)" xlink:href="#aX"/><use transform="matrix(0.05555555555555554,0,0,0.05555555555555554,84.2222222222222,0)" xlink:href="#bh"/><use transform="matrix(0.05555555555555554,0,0,0.05555555555555554,95.33333333333331,0)" xlink:href="#aX"/></g><g id="ak"><use transform="matrix(0.05555555555555554,0,0,0.05555555555555554,0,0)" xlink:href="#bo"/><use transform="matrix(0.05555555555555554,0,0,0.05555555555555554,9.999999999999996,0)" xlink:href="#aN"/><use transform="matrix(0.05555555555555554,0,0,0.05555555555555554,14.388888888888884,0)" xlink:href="#aZ"/><use transform="matrix(0.05555555555555554,0,0,0.05555555555555554,24.38888888888888,0)" xlink:href="#be"/><use transform="matrix(0.05555555555555554,0,0,0.05555555555555554,29.944444444444436,0)" xlink:href="#bh"/><use transform="matrix(0.05555555555555554,0,0,0.05555555555555554,41.05555555555554,0)" xlink:href="#aZ"/></g><g id="al"><use transform="matrix(0.05555555555555554,0,0,0.05555555555555554,0,0)" xlink:href="#bh"/><use transform="matrix(0.05555555555555554,0,0,0.05555555555555554,11.111111111111107,0)" xlink:href="#aX"/><use transform="matrix(0.05555555555555554,0,0,0.05555555555555554,22.222222222222214,0)" xlink:href="#bd"/><use transform="matrix(0.05555555555555554,0,0,0.05555555555555554,38.83333333333332,0)" xlink:href="#aN"/><use transform="matrix(0.05555555555555554,0,0,0.05555555555555554,43.22222222222221,0)" xlink:href="#be"/><use transform="matrix(0.05555555555555554,0,0,0.05555555555555554,48.77777777777776,0)" xlink:href="#aY"/></g><g id="am"><use transform="matrix(0.05555555555555554,0,0,0.05555555555555554,0,0)" xlink:href="#bg"/><use transform="matrix(0.05555555555555554,0,0,0.05555555555555554,5.555555555555554,0)" xlink:href="#aM"/><use transform="matrix(0.05555555555555554,0,0,0.05555555555555554,16.66666666666666,0)" xlink:href="#bd"/><use transform="matrix(0.05555555555555554,0,0,0.05555555555555554,33.27777777777777,0)" xlink:href="#bh"/><use transform="matrix(0.05555555555555554,0,0,0.05555555555555554,44.38888888888888,0)" xlink:href="#aX"/><use transform="matrix(0.05555555555555554,0,0,0.05555555555555554,55.499999999999986,0)" xlink:href="#bf"/><use transform="matrix(0.05555555555555554,0,0,0.05555555555555554,66.61111111111109,0)" xlink:href="#bc"/><use transform="matrix(0.05555555555555554,0,0,0.05555555555555554,73.2222222222222,0)" xlink:href="#aY"/><use transform="matrix(0.05555555555555554,0,0,0.05555555555555554,84.33333333333331,0)" xlink:href="#aZ"/></g><g id="an"><use transform="matrix(0.05555555555555554,0,0,0.05555555555555554,0,0)" xlink:href="#bd"/><use transform="matrix(0.05555555555555554,0,0,0.05555555555555554,16.611111111111107,0)" xlink:href="#bh"/><use transform="matrix(0.05555555555555554,0,0,0.05555555555555554,27.722222222222214,0)" xlink:href="#aZ"/><use transform="matrix(0.05555555555555554,0,0,0.05555555555555554,37.722222222222214,0)" xlink:href="#ba"/><use transform="matrix(0.05555555555555554,0,0,0.05555555555555554,47.722222222222214,0)" xlink:href="#bf"/><use transform="matrix(0.05555555555555554,0,0,0.05555555555555554,58.833333333333314,0)" xlink:href="#be"/><use transform="matrix(0.05555555555555554,0,0,0.05555555555555554,64.38888888888887,0)" xlink:href="#bh"/><use transform="matrix(0.05555555555555554,0,0,0.05555555555555554,75.49999999999997,0)" xlink:href="#aZ"/></g><g id="ao"><use transform="matrix(0.05555555555555554,0,0,0.05555555555555554,0,0)" xlink:href="#aN"/><use transform="matrix(0.05555555555555554,0,0,0.05555555555555554,4.3888888888888875,0)" xlink:href="#aP"/><use transform="matrix(0.05555555555555554,0,0,0.05555555555555554,15.499999999999995,0)" xlink:href="#be"/><use transform="matrix(0.05555555555555554,0,0,0.05555555555555554,21.05555555555555,0)" xlink:href="#aY"/><use transform="matrix(0.05555555555555554,0,0,0.05555555555555554,32.16666666666666,0)" xlink:href="#bc"/><use transform="matrix(0.05555555555555554,0,0,0.05555555555555554,38.777777777777764,0)" xlink:href="#aP"/><use transform="matrix(0.05555555555555554,0,0,0.05555555555555554,49.88888888888887,0)" xlink:href="#aY"/><use transform="matrix(0.05555555555555554,0,0,0.05555555555555554,60.99999999999998,0)" xlink:href="#be"/></g><g id="ap"><use transform="matrix(0.05555555555555554,0,0,0.05555555555555554,0,0)" xlink:href="#ba"/><use transform="matrix(0.05555555555555554,0,0,0.05555555555555554,9.999999999999996,0)" xlink:href="#bi"/><use transform="matrix(0.05555555555555554,0,0,0.05555555555555554,14.388888888888884,0)" xlink:href="#aN"/><use transform="matrix(0.05555555555555554,0,0,0.05555555555555554,18.77777777777777,0)" xlink:href="#bd"/><use transform="matrix(0.05555555555555554,0,0,0.05555555555555554,35.38888888888888,0)" xlink:href="#bh"/><use transform="matrix(0.05555555555555554,0,0,0.05555555555555554,46.499999999999986,0)" xlink:href="#be"/><use transform="matrix(0.05555555555555554,0,0,0.05555555555555554,52.05555555555554,0)" xlink:href="#aN"/><use transform="matrix(0.05555555555555554,0,0,0.05555555555555554,56.44444444444443,0)" xlink:href="#bJ"/><use transform="matrix(0.05555555555555554,0,0,0.05555555555555554,66.44444444444443,0)" xlink:href="#bh"/><use transform="matrix(0.05555555555555554,0,0,0.05555555555555554,77.55555555555554,0)" xlink:href="#aX"/><use transform="matrix(0.05555555555555554,0,0,0.05555555555555554,88.66666666666666,0)" xlink:href="#bf"/></g><g id="aq"><use transform="matrix(0.05555555555555554,0,0,0.05555555555555554,0,0)" xlink:href="#ba"/><use transform="matrix(0.05555555555555554,0,0,0.05555555555555554,9.999999999999996,0)" xlink:href="#bh"/><use transform="matrix(0.05555555555555554,0,0,0.05555555555555554,21.111111111111104,0)" xlink:href="#aP"/><use transform="matrix(0.05555555555555554,0,0,0.05555555555555554,32.222222222222214,0)" xlink:href="#ba"/><use transform="matrix(0.05555555555555554,0,0,0.05555555555555554,42.222222222222214,0)" xlink:href="#aY"/><use transform="matrix(0.05555555555555554,0,0,0.05555555555555554,53.33333333333332,0)" xlink:href="#bi"/><use transform="matrix(0.05555555555555554,0,0,0.05555555555555554,57.72222222222221,0)" xlink:href="#bh"/><use transform="matrix(0.05555555555555554,0,0,0.05555555555555554,68.83333333333331,0)" xlink:href="#ba"/><use transform="matrix(0.05555555555555554,0,0,0.05555555555555554,78.83333333333331,0)" xlink:href="#aN"/><use transform="matrix(0.05555555555555554,0,0,0.05555555555555554,83.2222222222222,0)" xlink:href="#bn"/><use transform="matrix(0.05555555555555554,0,0,0.05555555555555554,94.33333333333331,0)" xlink:href="#aP"/></g><g id="ar"><use transform="matrix(0.05555555555555554,0,0,0.05555555555555554,0,0)" xlink:href="#bj"/><use transform="matrix(0.05555555555555554,0,0,0.05555555555555554,11.111111111111107,0)" xlink:href="#bc"/><use transform="matrix(0.05555555555555554,0,0,0.05555555555555554,17.722222222222214,0)" xlink:href="#bh"/><use transform="matrix(0.05555555555555554,0,0,0.05555555555555554,28.833333333333325,0)" xlink:href="#be"/><use transform="matrix(0.05555555555555554,0,0,0.05555555555555554,34.38888888888887,0)" xlink:href="#aN"/><use transform="matrix(0.05555555555555554,0,0,0.05555555555555554,38.77777777777776,0)" xlink:href="#aZ"/></g><g id="as"><use transform="matrix(0.05555555555555554,0,0,0.05555555555555554,0,0)" xlink:href="#bd"/><use transform="matrix(0.05555555555555554,0,0,0.05555555555555554,16.611111111111107,0)" xlink:href="#bf"/><use transform="matrix(0.05555555555555554,0,0,0.05555555555555554,27.722222222222214,0)" xlink:href="#bo"/><use transform="matrix(0.05555555555555554,0,0,0.05555555555555554,37.722222222222214,0)" xlink:href="#aN"/><use transform="matrix(0.05555555555555554,0,0,0.05555555555555554,42.1111111111111,0)" xlink:href="#bi"/><use transform="matrix(0.05555555555555554,0,0,0.05555555555555554,46.499999999999986,0)" xlink:href="#aN"/><use transform="matrix(0.05555555555555554,0,0,0.05555555555555554,50.88888888888887,0)" xlink:href="#aX"/><use transform="matrix(0.05555555555555554,0,0,0.05555555555555554,61.99999999999998,0)" xlink:href="#bh"/><use transform="matrix(0.05555555555555554,0,0,0.05555555555555554,73.11111111111109,0)" xlink:href="#aX"/></g><g id="at"><use transform="matrix(0.05555555555555554,0,0,0.05555555555555554,0,0)" xlink:href="#bh"/><use transform="matrix(0.05555555555555554,0,0,0.05555555555555554,11.111111111111107,0)" xlink:href="#aX"/><use transform="matrix(0.05555555555555554,0,0,0.05555555555555554,22.222222222222214,0)" xlink:href="#bh"/><use transform="matrix(0.05555555555555554,0,0,0.05555555555555554,33.33333333333332,0)" xlink:href="#bp"/><use transform="matrix(0.05555555555555554,0,0,0.05555555555555554,44.44444444444443,0)" xlink:href="#be"/><use transform="matrix(0.05555555555555554,0,0,0.05555555555555554,49.999999999999986,0)" xlink:href="#bh"/><use transform="matrix(0.05555555555555554,0,0,0.05555555555555554,61.11111111111109,0)" xlink:href="#aX"/><use transform="matrix(0.05555555555555554,0,0,0.05555555555555554,72.2222222222222,0)" xlink:href="#bh"/></g><path fill="#333" d="M0 4l72-265h28L28 4H0" id="bM"/><g id="au"><use transform="matrix(0.05555555555555554,0,0,0.05555555555555554,0,0)" xlink:href="#bp"/><use transform="matrix(0.05555555555555554,0,0,0.05555555555555554,11.111111111111107,0)" xlink:href="#bc"/><use transform="matrix(0.05555555555555554,0,0,0.05555555555555554,17.722222222222214,0)" xlink:href="#aY"/><use transform="matrix(0.05555555555555554,0,0,0.05555555555555554,28.833333333333325,0)" xlink:href="#ba"/><use transform="matrix(0.05555555555555554,0,0,0.05555555555555554,38.833333333333314,0)" xlink:href="#aN"/><use transform="matrix(0.05555555555555554,0,0,0.05555555555555554,43.2222222222222,0)" xlink:href="#bf"/><use transform="matrix(0.05555555555555554,0,0,0.05555555555555554,54.33333333333331,0)" xlink:href="#bM"/><use transform="matrix(0.05555555555555554,0,0,0.05555555555555554,59.88888888888886,0)" xlink:href="#aP"/><use transform="matrix(0.05555555555555554,0,0,0.05555555555555554,70.99999999999997,0)" xlink:href="#bf"/><use transform="matrix(0.05555555555555554,0,0,0.05555555555555554,82.11111111111109,0)" xlink:href="#ba"/><use transform="matrix(0.05555555555555554,0,0,0.05555555555555554,92.11111111111109,0)" xlink:href="#bD"/><use transform="matrix(0.05555555555555554,0,0,0.05555555555555554,103.2222222222222,0)" xlink:href="#aY"/></g><path fill="#333" d="M212-179c-10-28-35-45-73-45-59 0-87 40-87 99 0 60 29 101 89 101 43 0 62-24 78-52l27 14C228-24 195 4 139 4 59 4 22-46 18-125c-6-104 99-153 187-111 19 9 31 26 39 46" id="bN"/><path fill="#333" d="M141-36C126-15 110 5 73 4 37 3 15-17 15-53c-1-64 63-63 125-63 3-35-9-54-41-54-24 1-41 7-42 31l-33-3c5-37 33-52 76-52 45 0 72 20 72 64v82c-1 20 7 32 28 27v20c-31 9-61-2-59-35zM48-53c0 20 12 33 32 33 41-3 63-29 60-74-43 2-92-5-92 41zm25-158c8-23 27-35 38-54h36v5l-58 49H73" id="bO"/><g id="av"><use transform="matrix(0.07407407407407407,0,0,0.07407407407407407,0,0)" xlink:href="#bN"/><use transform="matrix(0.07407407407407407,0,0,0.07407407407407407,19.185185185185183,0)" xlink:href="#aM"/><use transform="matrix(0.07407407407407407,0,0,0.07407407407407407,34,0)" xlink:href="#bO"/><use transform="matrix(0.07407407407407407,0,0,0.07407407407407407,48.81481481481481,0)" xlink:href="#aP"/><use transform="matrix(0.07407407407407407,0,0,0.07407407407407407,63.62962962962962,0)" xlink:href="#aX"/><use transform="matrix(0.07407407407407407,0,0,0.07407407407407407,78.44444444444443,0)" xlink:href="#bf"/></g><path fill="#333" d="M24-248c120-7 223 5 221 122C244-46 201 0 124 0H24v-248zM76-40c74 7 117-18 117-86 0-67-45-88-117-82v168" id="bP"/><g id="aw"><use transform="matrix(0.06234567901234567,0,0,0.06234567901234567,0,0)" xlink:href="#bP"/><use transform="matrix(0.06234567901234567,0,0,0.06234567901234567,16.147530864197527,0)" xlink:href="#bt"/><use transform="matrix(0.06234567901234567,0,0,0.06234567901234567,22.382098765432094,0)" xlink:href="#bs"/></g><g id="ax"><use transform="matrix(0.05555555555555554,0,0,0.05555555555555554,0,0)" xlink:href="#bd"/><use transform="matrix(0.05555555555555554,0,0,0.05555555555555554,16.611111111111107,0)" xlink:href="#aY"/><use transform="matrix(0.05555555555555554,0,0,0.05555555555555554,27.722222222222214,0)" xlink:href="#aZ"/></g><g id="ay"><use transform="matrix(0.05555555555555554,0,0,0.05555555555555554,0,0)" xlink:href="#aP"/><use transform="matrix(0.05555555555555554,0,0,0.05555555555555554,11.111111111111107,0)" xlink:href="#bf"/><use transform="matrix(0.05555555555555554,0,0,0.05555555555555554,22.222222222222214,0)" xlink:href="#bd"/><use transform="matrix(0.05555555555555554,0,0,0.05555555555555554,38.83333333333332,0)" xlink:href="#bb"/><use transform="matrix(0.05555555555555554,0,0,0.05555555555555554,49.94444444444443,0)" xlink:href="#bc"/><use transform="matrix(0.05555555555555554,0,0,0.05555555555555554,56.555555555555536,0)" xlink:href="#aY"/></g><g id="az"><use transform="matrix(0.05555555555555554,0,0,0.05555555555555554,0,0)" xlink:href="#aZ"/><use transform="matrix(0.05555555555555554,0,0,0.05555555555555554,9.999999999999996,0)" xlink:href="#aY"/><use transform="matrix(0.05555555555555554,0,0,0.05555555555555554,21.111111111111104,0)" xlink:href="#bd"/><use transform="matrix(0.05555555555555554,0,0,0.05555555555555554,37.722222222222214,0)" xlink:href="#bh"/><use transform="matrix(0.05555555555555554,0,0,0.05555555555555554,48.83333333333332,0)" xlink:href="#aP"/><use transform="matrix(0.05555555555555554,0,0,0.05555555555555554,59.94444444444443,0)" xlink:href="#bh"/></g><g id="aA"><use transform="matrix(0.05555555555555554,0,0,0.05555555555555554,0,0)" xlink:href="#bp"/><use transform="matrix(0.05555555555555554,0,0,0.05555555555555554,11.111111111111107,0)" xlink:href="#bc"/><use transform="matrix(0.05555555555555554,0,0,0.05555555555555554,17.722222222222214,0)" xlink:href="#aN"/><use transform="matrix(0.05555555555555554,0,0,0.05555555555555554,22.1111111111111,0)" xlink:href="#bd"/><use transform="matrix(0.05555555555555554,0,0,0.05555555555555554,38.72222222222221,0)" xlink:href="#aY"/><use transform="matrix(0.05555555555555554,0,0,0.05555555555555554,49.833333333333314,0)" xlink:href="#bc"/></g><g id="aB"><use transform="matrix(0.05555555555555554,0,0,0.05555555555555554,0,0)" xlink:href="#aX"/><use transform="matrix(0.05555555555555554,0,0,0.05555555555555554,11.111111111111107,0)" xlink:href="#bq"/><use transform="matrix(0.05555555555555554,0,0,0.05555555555555554,16.66666666666666,0)" xlink:href="#bh"/></g><g id="aC"><use transform="matrix(0.05555555555555554,0,0,0.05555555555555554,0,0)" xlink:href="#bd"/><use transform="matrix(0.05555555555555554,0,0,0.05555555555555554,16.611111111111107,0)" xlink:href="#aY"/><use transform="matrix(0.05555555555555554,0,0,0.05555555555555554,27.722222222222214,0)" xlink:href="#aZ"/></g><g id="aD"><use transform="matrix(0.05555555555555554,0,0,0.05555555555555554,0,0)" xlink:href="#bK"/><use transform="matrix(0.05555555555555554,0,0,0.05555555555555554,11.111111111111107,0)" xlink:href="#bi"/><use transform="matrix(0.05555555555555554,0,0,0.05555555555555554,15.499999999999995,0)" xlink:href="#aN"/><use transform="matrix(0.05555555555555554,0,0,0.05555555555555554,19.888888888888882,0)" xlink:href="#be"/><use transform="matrix(0.05555555555555554,0,0,0.05555555555555554,25.444444444444436,0)" xlink:href="#bd"/><use transform="matrix(0.05555555555555554,0,0,0.05555555555555554,42.05555555555554,0)" xlink:href="#bf"/></g><g id="aE"><use transform="matrix(0.05555555555555554,0,0,0.05555555555555554,0,0)" xlink:href="#bd"/><use transform="matrix(0.05555555555555554,0,0,0.05555555555555554,16.611111111111107,0)" xlink:href="#aY"/><use transform="matrix(0.05555555555555554,0,0,0.05555555555555554,27.722222222222214,0)" xlink:href="#aZ"/></g><path fill="#333" d="M230 0l2-204L168 0h-37L68-204 70 0H24v-248h70l56 185 57-185h69V0h-46" id="bQ"/><g id="aF"><use transform="matrix(0.06234567901234567,0,0,0.06234567901234567,0,0)" xlink:href="#bQ"/><use transform="matrix(0.06234567901234567,0,0,0.06234567901234567,18.641358024691353,0)" xlink:href="#aV"/><use transform="matrix(0.06234567901234567,0,0,0.06234567901234567,31.110493827160486,0)" xlink:href="#aT"/></g><g id="aG"><use transform="matrix(0.05555555555555554,0,0,0.05555555555555554,0,0)" xlink:href="#ba"/><use transform="matrix(0.05555555555555554,0,0,0.05555555555555554,9.999999999999996,0)" xlink:href="#aM"/><use transform="matrix(0.05555555555555554,0,0,0.05555555555555554,21.111111111111104,0)" xlink:href="#bh"/><use transform="matrix(0.05555555555555554,0,0,0.05555555555555554,32.222222222222214,0)" xlink:href="#be"/><use transform="matrix(0.05555555555555554,0,0,0.05555555555555554,37.77777777777777,0)" xlink:href="#bc"/><use transform="matrix(0.05555555555555554,0,0,0.05555555555555554,44.38888888888888,0)" xlink:href="#aN"/><use transform="matrix(0.05555555555555554,0,0,0.05555555555555554,48.777777777777764,0)" xlink:href="#bd"/><use transform="matrix(0.05555555555555554,0,0,0.05555555555555554,65.38888888888887,0)" xlink:href="#aY"/><use transform="matrix(0.05555555555555554,0,0,0.05555555555555554,76.49999999999997,0)" xlink:href="#aZ"/><use transform="matrix(0.05555555555555554,0,0,0.05555555555555554,86.49999999999997,0)" xlink:href="#be"/><use transform="matrix(0.05555555555555554,0,0,0.05555555555555554,92.05555555555553,0)" xlink:href="#bc"/><use transform="matrix(0.05555555555555554,0,0,0.05555555555555554,98.66666666666664,0)" xlink:href="#aY"/></g><path fill="#333" d="M220-157c-53 9-28 100-34 157h-49v-107c1-27-5-49-29-50C55-147 81-57 75 0H25l-1-190h47c2 12-1 28 3 38 10-53 101-56 108 0 13-22 24-43 59-42 82 1 51 116 57 194h-49v-107c-1-25-5-48-29-50" id="bR"/><g id="aH"><use transform="matrix(0.06234567901234567,0,0,0.06234567901234567,0,0)" xlink:href="#bF"/><use transform="matrix(0.06234567901234567,0,0,0.06234567901234567,16.147530864197527,0)" xlink:href="#aR"/><use transform="matrix(0.06234567901234567,0,0,0.06234567901234567,29.80123456790123,0)" xlink:href="#bs"/><use transform="matrix(0.06234567901234567,0,0,0.06234567901234567,42.27037037037036,0)" xlink:href="#bA"/><use transform="matrix(0.06234567901234567,0,0,0.06234567901234567,49.689506172839494,0)" xlink:href="#bu"/><use transform="matrix(0.06234567901234567,0,0,0.06234567901234567,58.417901234567886,0)" xlink:href="#bv"/><use transform="matrix(0.06234567901234567,0,0,0.06234567901234567,64.65246913580245,0)" xlink:href="#bR"/><use transform="matrix(0.06234567901234567,0,0,0.06234567901234567,84.60308641975305,0)" xlink:href="#aV"/><use transform="matrix(0.06234567901234567,0,0,0.06234567901234567,97.0722222222222,0)" xlink:href="#aT"/><use transform="matrix(0.06234567901234567,0,0,0.06234567901234567,109.54135802469133,0)" xlink:href="#bA"/><use transform="matrix(0.06234567901234567,0,0,0.06234567901234567,116.96049382716046,0)" xlink:href="#bu"/><use transform="matrix(0.06234567901234567,0,0,0.06234567901234567,125.68888888888885,0)" xlink:href="#aV"/></g><g id="aI"><use transform="matrix(0.05555555555555554,0,0,0.05555555555555554,0,0)" xlink:href="#bh"/><use transform="matrix(0.05555555555555554,0,0,0.05555555555555554,11.111111111111107,0)" xlink:href="#bL"/><use transform="matrix(0.05555555555555554,0,0,0.05555555555555554,22.222222222222214,0)" xlink:href="#bf"/></g><path fill="#333" d="M169-182c-1-43-94-46-97-3 18 66 151 10 154 114 3 95-165 93-204 36-6-8-10-19-12-30l50-8c3 46 112 56 116 5-17-69-150-10-154-114-4-87 153-88 188-35 5 8 8 18 10 28" id="bS"/><g id="aJ"><use transform="matrix(0.06234567901234567,0,0,0.06234567901234567,0,0)" xlink:href="#bS"/><use transform="matrix(0.06234567901234567,0,0,0.06234567901234567,14.96296296296296,0)" xlink:href="#aV"/><use transform="matrix(0.06234567901234567,0,0,0.06234567901234567,27.432098765432094,0)" xlink:href="#bR"/><use transform="matrix(0.06234567901234567,0,0,0.06234567901234567,47.38271604938271,0)" xlink:href="#bs"/><use transform="matrix(0.06234567901234567,0,0,0.06234567901234567,59.85185185185184,0)" xlink:href="#bw"/><use transform="matrix(0.06234567901234567,0,0,0.06234567901234567,73.50555555555555,0)" xlink:href="#bs"/></g><path fill="#333" d="M199 0l-22-63H83L61 0H9l90-248h61L250 0h-51zm-33-102l-36-108c-10 38-24 72-36 108h72" id="bT"/><path fill="#333" d="M135-194c87-1 58 113 63 194h-50c-7-57 23-157-34-157-59 0-34 97-39 157H25l-1-190h47c2 12-1 28 3 38 12-26 28-41 61-42zm47-65c-2 27-9 52-40 51-27-1-66-46-73 0H45c0-29 9-51 39-51 28 0 66 44 74 0h24" id="bU"/><g id="aK"><use transform="matrix(0.06172839506172837,0,0,0.06172839506172837,0,0)" xlink:href="#bT"/><use transform="matrix(0.06172839506172837,0,0,0.06172839506172837,15.987654320987648,0)" xlink:href="#bU"/><use transform="matrix(0.06172839506172837,0,0,0.06172839506172837,29.506172839506164,0)" xlink:href="#bz"/></g></defs></g></svg>